<svg id="Layer_1" data-name="Layer 1" xmlns="http://www.w3.org/2000/svg" viewBox="0 0 100 100"><path d="M92.043,50S77.614,100,50,100A50,50,0,0,1,50,0C77.614,0,92.043,50,92.043,50Z" fill="#8686fc"/><path d="M50,0a50,50,0,1,1,0,100" fill="#c5c5ff"/><path d="M74.75,74.75A34.9,34.9,0,0,1,50,85V70a20,20,0,0,0,0-40V15A35,35,0,0,1,74.75,74.75Z" fill="#8686fc"/><path d="M50,15V85a35,35,0,1,1,0-70Z" fill="#c5c5ff"/><path d="M64.14,64.14A19.945,19.945,0,0,1,50,70V30A20,20,0,0,1,64.14,64.14Z" fill="#c5c5ff"/><path d="M50,30V70a20,20,0,0,1,0-40Z" fill="#8686fc"/></svg>