<svg id="Layer_1" data-name="Layer 1" xmlns="http://www.w3.org/2000/svg" viewBox="0 0 100 100"><rect width="100" height="100" fill="#c5c5ff"/><rect width="50" height="50" fill="#8686fc"/><path d="M36.135,36.135A15.741,15.741,0,1,1,40.75,25,15.678,15.678,0,0,1,36.135,36.135Z" fill="#c5c5ff"/><path d="M86.135,36.135A15.741,15.741,0,1,1,90.75,25,15.678,15.678,0,0,1,86.135,36.135Z" fill="#8686fc"/><rect x="50" y="50" width="50" height="50" fill="#8686fc"/><path d="M86.135,86.135A15.741,15.741,0,1,1,90.75,75,15.678,15.678,0,0,1,86.135,86.135Z" fill="#c5c5ff"/><rect y="50" width="50" height="50" fill="#c5c5ff"/><path d="M36.135,86.135A15.741,15.741,0,1,1,40.75,75,15.678,15.678,0,0,1,36.135,86.135Z" fill="#8686fc"/></svg>