<svg id="Layer_1" data-name="Layer 1" xmlns="http://www.w3.org/2000/svg" viewBox="0 0 100 100"><rect width="100" height="100" fill="#c5c5ff"/><polygon points="100 0 100 25 25 25 0 0 100 0" fill="#8686fc"/><polygon points="50 50 0 50 0 25 25 25 50 50" fill="#8686fc"/><polygon points="100 25 100 50 50 50 25 25 100 25" fill="#c5c5ff"/><polygon points="75 75 0 75 0 50 50 50 75 75" fill="#c5c5ff"/><polygon points="100 50 100 75 75 75 50 50 100 50" fill="#8686fc"/><polygon points="100 100 0 100 0 75 75 75 100 100" fill="#8686fc"/><polygon points="100 75 100 100 75 75 100 75" fill="#c5c5ff"/></svg>