<svg id="Layer_1" data-name="Layer 1" xmlns="http://www.w3.org/2000/svg" viewBox="0 0 100 100"><polygon points="100 87.85 100 100 87.85 100 100 87.85" fill="#8686fc"/><polygon points="100 52.69 100 70.37 70.37 100 52.69 100 100 52.69" fill="#8686fc"/><polygon points="100 17.53 100 35.21 35.21 100 17.53 100 100 17.53" fill="#8686fc"/><polygon points="100 0 100 0.05 0.05 100 0 100 0 82.37 82.37 0 100 0" fill="#8686fc"/><polygon points="64.89 0 0 64.89 0 47.21 47.21 0 64.89 0" fill="#8686fc"/><polygon points="29.73 0 0 29.73 0 12.05 12.05 0 29.73 0" fill="#8686fc"/></svg>