<svg id="Layer_1" data-name="Layer 1" xmlns="http://www.w3.org/2000/svg" viewBox="0 0 100 100"><rect width="100" height="100" fill="#c5c5ff"/><path d="M50,95A45,45,0,1,1,81.834,81.834,44.874,44.874,0,0,1,50,95ZM50,8.254A41.746,41.746,0,1,0,79.533,20.467,41.631,41.631,0,0,0,50,8.254Z" fill="#8686fc"/><path d="M50,82.311a32.312,32.312,0,1,1,22.847-9.464A32.094,32.094,0,0,1,50,82.311Zm0-61.354a29.043,29.043,0,1,0,20.546,8.5A28.965,28.965,0,0,0,50,20.957Z" fill="#8686fc"/><path d="M50,68.89A18.89,18.89,0,1,1,63.357,36.643h0A18.89,18.89,0,0,1,50,68.89Zm0-34.526a15.637,15.637,0,1,0,11.056,4.58h0A15.532,15.532,0,0,0,50,34.364Z" fill="#8686fc"/><path d="M50,56.459a6.459,6.459,0,1,1,4.569-1.89A6.439,6.439,0,0,1,50,56.459Zm0-9.665a3.206,3.206,0,1,0,2.268.938A3.2,3.2,0,0,0,50,46.794Z" fill="#8686fc"/></svg>