<svg id="Layer_1" data-name="Layer 1" xmlns="http://www.w3.org/2000/svg" viewBox="0 0 100 100"><path d="M50,61.315A11.315,11.315,0,1,1,61.316,50,11.328,11.328,0,0,1,50,61.315Zm0-20.63A9.315,9.315,0,1,0,59.316,50,9.326,9.326,0,0,0,50,40.685Z" fill="#8686fc"/><path d="M50,55a5,5,0,1,1,5-5A5.006,5.006,0,0,1,50,55Zm0-8a3,3,0,1,0,3,3A3,3,0,0,0,50,47Z" fill="#8686fc"/><path d="M50,69.053A19.053,19.053,0,1,1,69.053,50,19.074,19.074,0,0,1,50,69.053Zm0-36.106A17.053,17.053,0,1,0,67.053,50,17.072,17.072,0,0,0,50,32.947Z" fill="#8686fc"/><path d="M50,76.789A26.789,26.789,0,1,1,76.79,50,26.82,26.82,0,0,1,50,76.789Zm0-51.578A24.789,24.789,0,1,0,74.79,50,24.818,24.818,0,0,0,50,25.211Z" fill="#8686fc"/><path d="M50,84.526A34.526,34.526,0,1,1,84.526,50,34.565,34.565,0,0,1,50,84.526Zm0-67.052A32.526,32.526,0,1,0,82.526,50,32.562,32.562,0,0,0,50,17.474Z" fill="#8686fc"/><path d="M50,92.263A42.263,42.263,0,1,1,92.263,50,42.311,42.311,0,0,1,50,92.263ZM50,9.737A40.263,40.263,0,1,0,90.263,50,40.309,40.309,0,0,0,50,9.737Z" fill="#8686fc"/><path d="M50,100a50,50,0,1,1,50-50A50.057,50.057,0,0,1,50,100ZM50,2A48,48,0,1,0,98,50,48.054,48.054,0,0,0,50,2Z" fill="#8686fc"/></svg>