<svg id="Layer_1" data-name="Layer 1" xmlns="http://www.w3.org/2000/svg" viewBox="0 0 100 100"><path d="M50,62.105A12.1,12.1,0,1,1,62.105,50,12.118,12.118,0,0,1,50,62.105ZM50,41.9a8.1,8.1,0,1,0,8.1,8.1A8.114,8.114,0,0,0,50,41.9Z" fill="#8686fc"/><path d="M50,69.685A19.685,19.685,0,1,1,69.684,50,19.707,19.707,0,0,1,50,69.685Zm0-35.37A15.685,15.685,0,1,0,65.684,50,15.7,15.7,0,0,0,50,34.315Z" fill="#8686fc"/><path d="M50,77.263A27.263,27.263,0,1,1,77.263,50,27.294,27.294,0,0,1,50,77.263Zm0-50.526A23.263,23.263,0,1,0,73.263,50,23.29,23.29,0,0,0,50,26.737Z" fill="#8686fc"/><path d="M50,84.842A34.842,34.842,0,1,1,84.842,50,34.881,34.881,0,0,1,50,84.842Zm0-65.684A30.842,30.842,0,1,0,80.842,50,30.877,30.877,0,0,0,50,19.158Z" fill="#8686fc"/><path d="M50,92.421A42.421,42.421,0,1,1,92.421,50,42.469,42.469,0,0,1,50,92.421Zm0-80.842A38.421,38.421,0,1,0,88.421,50,38.464,38.464,0,0,0,50,11.579Z" fill="#8686fc"/><path d="M50,100a50,50,0,1,1,50-50A50.057,50.057,0,0,1,50,100ZM50,4A46,46,0,1,0,96,50,46.053,46.053,0,0,0,50,4Z" fill="#8686fc"/></svg>