<svg id="Layer_1" data-name="Layer 1" xmlns="http://www.w3.org/2000/svg" viewBox="0 0 100 100"><path d="M49.938,50.062s1.651,23.98-12.123,37.753S.062,99.938.062,99.938s-1.651-23.98,12.123-37.753S49.938,50.062,49.938,50.062Z" fill="#8686fc"/><path d="M99.938.062s1.651,23.98-12.123,37.753S50.062,49.938,50.062,49.938s-1.651-23.98,12.123-37.753S99.938.062,99.938.062Z" fill="#8686fc"/><path d="M49.938,49.938s-23.98,1.651-37.753-12.123S.062.062.062.062s23.98-1.651,37.753,12.123S49.938,49.938,49.938,49.938Z" fill="#8686fc"/><path d="M99.938,99.938s-23.98,1.651-37.753-12.123S50.062,50.062,50.062,50.062s23.98-1.651,37.753,12.123S99.938,99.938,99.938,99.938Z" fill="#8686fc"/></svg>