<svg id="Layer_1" data-name="Layer 1" xmlns="http://www.w3.org/2000/svg" viewBox="0 0 100 100"><polygon points="100 30.093 87.641 24.628 82.468 22.334 74.878 6.118 92.4 13.887 100 30.093" fill="#8686fc"/><polygon points="100 30.093 71.755 93.882 61.494 89.339 7.6 65.467 12.349 54.736 15.359 47.935 61.983 68.581 82.468 22.334 87.641 24.628 100 30.093" fill="#c5c5ff"/><polygon points="61.983 68.581 15.359 47.935 7.769 31.73 54.392 52.375 61.983 68.581" fill="#8686fc"/><polygon points="82.468 22.334 61.983 68.581 54.392 52.375 74.878 6.118 82.468 22.334" fill="#111"/><polygon points="15.359 47.935 12.349 54.736 7.6 65.467 0 49.262 7.769 31.73 15.359 47.935" fill="#111"/></svg>