<svg id="Layer_1" data-name="Layer 1" xmlns="http://www.w3.org/2000/svg" viewBox="0 0 100 100"><polygon points="99.83 15.256 83.692 15.297 76.933 15.306 60.776 0.018 83.667 -0.018 99.83 15.256" fill="#8686fc"/><polygon points="99.83 15.256 100 100 16.203 100 16.172 84.718 16.153 75.836 77.048 75.713 76.933 15.306 83.692 15.297 99.83 15.256" fill="#c5c5ff"/><polygon points="77.048 75.713 16.153 75.836 0 61.843 60.895 61.72 77.048 75.713" fill="#8686fc"/><polygon points="76.933 15.306 77.048 75.713 60.895 61.72 60.776 0.018 76.933 15.306" fill="#111"/><polygon points="16.153 75.836 16.172 84.718 16.203 100 0.04 84.744 0 61.843 16.153 75.836" fill="#111"/></svg>