<svg id="Layer_1" data-name="Layer 1" xmlns="http://www.w3.org/2000/svg" viewBox="0 0 100 100"><path d="M96.535,63.178c-5.516,0-8.358-3.454-10.433-5.975-1.917-2.331-2.935-3.45-5.082-3.45s-3.164,1.119-5.081,3.449c-2.075,2.522-4.918,5.976-10.433,5.976S57.149,59.724,55.074,57.2c-1.917-2.33-2.934-3.449-5.081-3.449s-3.162,1.119-5.079,3.449C42.838,59.724,40,63.178,34.482,63.178s-8.355-3.455-10.43-5.976c-1.915-2.33-2.932-3.449-5.077-3.449S15.814,54.872,13.9,57.2c-2.076,2.521-4.917,5.976-10.432,5.976A3.466,3.466,0,0,1,0,59.713v-5s6.628.415,8.544-1.915c2.076-2.522,4.918-5.976,10.431-5.976s8.355,3.455,10.43,5.976c1.916,2.33,2.932,3.449,5.077,3.449s3.163-1.119,5.079-3.449c2.076-2.522,4.918-5.976,10.432-5.976S58.35,50.276,60.425,52.8c1.917,2.33,2.935,3.449,5.081,3.449s3.165-1.119,5.082-3.45c2.075-2.521,4.918-5.975,10.432-5.975s8.358,3.454,10.433,5.975C93.37,55.128,100,54.713,100,54.713v5A3.466,3.466,0,0,1,96.535,63.178Z" fill="#111"/><path d="M96.535,58.178c-5.516,0-8.358-3.454-10.433-5.975-1.917-2.331-2.935-3.45-5.082-3.45s-3.164,1.119-5.081,3.449c-2.075,2.522-4.918,5.976-10.433,5.976S57.149,54.724,55.074,52.2c-1.917-2.33-2.934-3.449-5.081-3.449s-3.162,1.119-5.079,3.449C42.838,54.724,40,58.178,34.482,58.178s-8.355-3.455-10.43-5.976c-1.915-2.33-2.932-3.449-5.077-3.449S15.814,49.872,13.9,52.2c-2.076,2.521-4.917,5.976-10.432,5.976a3.466,3.466,0,0,1,0-6.931c2.147,0,3.163-1.119,5.079-3.449,2.076-2.522,4.918-5.976,10.431-5.976s8.355,3.455,10.43,5.976c1.916,2.33,2.932,3.449,5.077,3.449s3.163-1.119,5.079-3.449c2.076-2.522,4.918-5.976,10.432-5.976S58.35,45.276,60.425,47.8c1.917,2.33,2.935,3.449,5.081,3.449s3.165-1.119,5.082-3.45c2.075-2.521,4.918-5.975,10.432-5.975s8.358,3.454,10.433,5.975c1.917,2.331,2.934,3.45,5.082,3.45a3.466,3.466,0,0,1,0,6.931Z" fill="#8686fc"/></svg>