<svg id="Layer_1" data-name="Layer 1" xmlns="http://www.w3.org/2000/svg" viewBox="0 0 100 100"><polygon points="69.866 50.025 50.043 61.875 30.11 50.025 49.933 38.503 69.866 50.025" fill="#c5c5ff" stroke="#111" stroke-linecap="round" stroke-linejoin="round" stroke-width="6"/><polygon points="69.866 50.025 69.803 74.053 50.043 85.528 50.043 61.875 69.866 50.025" fill="#c5c5ff" stroke="#111" stroke-linecap="round" stroke-linejoin="round" stroke-width="6"/><polygon points="50.043 61.875 50.043 85.528 30.048 74.053 30.11 50.025 50.043 61.875" fill="#c5c5ff" stroke="#111" stroke-linecap="round" stroke-linejoin="round" stroke-width="6"/><polygon points="89.862 61.497 70.039 73.347 50.043 61.875 69.866 50.025 89.862 61.497" fill="#c5c5ff" stroke="#111" stroke-linecap="round" stroke-linejoin="round" stroke-width="6"/><polygon points="89.862 61.497 89.799 85.525 70.039 97 70.039 73.347 89.862 61.497" fill="#c5c5ff" stroke="#111" stroke-linecap="round" stroke-linejoin="round" stroke-width="6"/><polygon points="70.039 73.347 70.039 97 50.044 85.525 50.043 61.875 70.039 73.347" fill="#c5c5ff" stroke="#111" stroke-linecap="round" stroke-linejoin="round" stroke-width="6"/><polygon points="49.956 14.522 30.133 26.372 10.201 14.522 30.024 3 49.956 14.522" fill="#c5c5ff" stroke="#111" stroke-linecap="round" stroke-linejoin="round" stroke-width="6"/><polygon points="49.956 14.522 49.893 38.55 30.133 50.025 30.133 26.372 49.956 14.522" fill="#c5c5ff" stroke="#111" stroke-linecap="round" stroke-linejoin="round" stroke-width="6"/><polygon points="30.133 26.372 30.133 50.025 10.138 38.55 10.201 14.522 30.133 26.372" fill="#c5c5ff" stroke="#111" stroke-linecap="round" stroke-linejoin="round" stroke-width="6"/><polygon points="69.952 25.994 50.129 37.844 30.133 26.372 49.956 14.522 69.952 25.994" fill="#c5c5ff" stroke="#111" stroke-linecap="round" stroke-linejoin="round" stroke-width="6"/><polygon points="69.952 25.994 69.89 50.022 50.043 61.875 50.129 37.844 69.952 25.994" fill="#c5c5ff" stroke="#111" stroke-linecap="round" stroke-linejoin="round" stroke-width="6"/><polygon points="50.129 37.844 50.043 61.875 30.134 50.022 30.133 26.372 50.129 37.844" fill="#c5c5ff" stroke="#111" stroke-linecap="round" stroke-linejoin="round" stroke-width="6"/></svg>