<svg id="Layer_1" data-name="Layer 1" xmlns="http://www.w3.org/2000/svg" viewBox="0 0 100 100"><path d="M49.994,2.006A47.994,47.994,0,1,0,98,50,47.992,47.992,0,0,0,49.994,2.006Zm0,69.677A21.683,21.683,0,1,1,71.677,50,21.681,21.681,0,0,1,49.994,71.683Z" fill="#8686fc" stroke="#111" stroke-linecap="round" stroke-linejoin="round" stroke-width="6"/><line x1="81.887" y1="75.007" x2="75.526" y2="71.647" fill="none" stroke="#111" stroke-linecap="round" stroke-linejoin="round" stroke-width="4"/><line x1="55.537" y1="88.938" x2="58.934" y2="83.729" fill="none" stroke="#111" stroke-linecap="round" stroke-linejoin="round" stroke-width="4"/><line x1="48.212" y1="82.988" x2="44.869" y2="76.701" fill="none" stroke="#111" stroke-linecap="round" stroke-linejoin="round" stroke-width="4"/><line x1="40.155" y1="88.293" x2="35.534" y2="92.471" fill="none" stroke="#111" stroke-linecap="round" stroke-linejoin="round" stroke-width="4"/><line x1="74.156" y1="82.737" x2="68.209" y2="88.114" fill="none" stroke="#111" stroke-linecap="round" stroke-linejoin="round" stroke-width="4"/><line x1="36.896" y1="79.925" x2="30.442" y2="82.089" fill="none" stroke="#111" stroke-linecap="round" stroke-linejoin="round" stroke-width="4"/><line x1="11.721" y1="61.16" x2="19.898" y2="62.305" fill="none" stroke="#111" stroke-linecap="round" stroke-linejoin="round" stroke-width="4"/><line x1="9.349" y1="34.488" x2="14.092" y2="41.03" fill="none" stroke="#111" stroke-linecap="round" stroke-linejoin="round" stroke-width="4"/><line x1="23.763" y1="42.516" x2="20.324" y2="48.702" fill="none" stroke="#111" stroke-linecap="round" stroke-linejoin="round" stroke-width="4"/><line x1="12.621" y1="50.051" x2="6.732" y2="53.176" fill="none" stroke="#111" stroke-linecap="round" stroke-linejoin="round" stroke-width="4"/><line x1="28.296" y1="66.337" x2="25.08" y2="72.407" fill="none" stroke="#111" stroke-linecap="round" stroke-linejoin="round" stroke-width="4"/><line x1="68.49" y1="78.199" x2="66.632" y2="71.683" fill="none" stroke="#111" stroke-linecap="round" stroke-linejoin="round" stroke-width="4"/><line x1="78.324" y1="62.254" x2="77.087" y2="54.782" fill="none" stroke="#111" stroke-linecap="round" stroke-linejoin="round" stroke-width="4"/><line x1="92.102" y1="47.869" x2="84.777" y2="48.975" fill="none" stroke="#111" stroke-linecap="round" stroke-linejoin="round" stroke-width="4"/><line x1="88.969" y1="64.241" x2="85.822" y2="58.707" fill="none" stroke="#111" stroke-linecap="round" stroke-linejoin="round" stroke-width="4"/><line x1="16.342" y1="74.57" x2="16.342" y2="84.323" fill="none" stroke="#111" stroke-linecap="round" stroke-linejoin="round" stroke-width="4"/><line x1="18.113" y1="24.993" x2="24.474" y2="28.353" fill="none" stroke="#111" stroke-linecap="round" stroke-linejoin="round" stroke-width="4"/><line x1="44.463" y1="11.062" x2="41.066" y2="16.271" fill="none" stroke="#111" stroke-linecap="round" stroke-linejoin="round" stroke-width="4"/><line x1="51.788" y1="17.012" x2="55.131" y2="23.299" fill="none" stroke="#111" stroke-linecap="round" stroke-linejoin="round" stroke-width="4"/><line x1="59.845" y1="11.707" x2="64.466" y2="7.529" fill="none" stroke="#111" stroke-linecap="round" stroke-linejoin="round" stroke-width="4"/><line x1="25.844" y1="17.263" x2="31.791" y2="11.886" fill="none" stroke="#111" stroke-linecap="round" stroke-linejoin="round" stroke-width="4"/><line x1="63.104" y1="20.075" x2="69.558" y2="17.911" fill="none" stroke="#111" stroke-linecap="round" stroke-linejoin="round" stroke-width="4"/><line x1="88.279" y1="38.84" x2="80.102" y2="37.695" fill="none" stroke="#111" stroke-linecap="round" stroke-linejoin="round" stroke-width="4"/><line x1="71.704" y1="33.663" x2="74.92" y2="27.593" fill="none" stroke="#111" stroke-linecap="round" stroke-linejoin="round" stroke-width="4"/><line x1="31.51" y1="21.801" x2="33.368" y2="28.317" fill="none" stroke="#111" stroke-linecap="round" stroke-linejoin="round" stroke-width="4"/><line x1="83.658" y1="25.43" x2="83.658" y2="15.677" fill="none" stroke="#111" stroke-linecap="round" stroke-linejoin="round" stroke-width="4"/></svg>