<svg id="Layer_1" data-name="Layer 1" xmlns="http://www.w3.org/2000/svg" viewBox="0 0 100 100"><rect width="80" height="80" fill="#8686fc"/><circle cx="22.303" cy="22.119" r="2.119" fill="#111"/><circle cx="33.1" cy="22.119" r="2.119" fill="#111"/><circle cx="43.897" cy="22.119" r="2.119" fill="#111"/><circle cx="54.693" cy="22.119" r="2.119" fill="#111"/><circle cx="65.49" cy="22.119" r="2.119" fill="#111"/><circle cx="76.287" cy="22.119" r="2.119" fill="#111"/><circle cx="87.084" cy="22.119" r="2.119" fill="#111"/><circle cx="97.881" cy="22.119" r="2.119" fill="#111"/><circle cx="22.303" cy="32.942" r="2.119" fill="#111"/><circle cx="33.1" cy="32.942" r="2.119" fill="#111"/><circle cx="43.897" cy="32.942" r="2.119" fill="#111"/><circle cx="54.693" cy="32.942" r="2.119" fill="#111"/><circle cx="65.49" cy="32.942" r="2.119" fill="#111"/><circle cx="76.287" cy="32.942" r="2.119" fill="#111"/><circle cx="87.084" cy="32.942" r="2.119" fill="#111"/><circle cx="97.881" cy="32.942" r="2.119" fill="#111"/><circle cx="22.303" cy="43.765" r="2.119" fill="#111"/><circle cx="33.1" cy="43.765" r="2.119" fill="#111"/><circle cx="43.897" cy="43.765" r="2.119" fill="#111"/><circle cx="54.693" cy="43.765" r="2.119" fill="#111"/><circle cx="65.49" cy="43.765" r="2.119" fill="#111"/><circle cx="76.287" cy="43.765" r="2.119" fill="#111"/><circle cx="87.084" cy="43.765" r="2.119" fill="#111"/><circle cx="97.881" cy="43.765" r="2.119" fill="#111"/><circle cx="22.303" cy="54.588" r="2.119" fill="#111"/><circle cx="33.1" cy="54.588" r="2.119" fill="#111"/><circle cx="43.897" cy="54.588" r="2.119" fill="#111"/><circle cx="54.693" cy="54.588" r="2.119" fill="#111"/><circle cx="65.49" cy="54.588" r="2.119" fill="#111"/><circle cx="76.287" cy="54.588" r="2.119" fill="#111"/><circle cx="87.084" cy="54.588" r="2.119" fill="#111"/><circle cx="97.881" cy="54.588" r="2.119" fill="#111"/><circle cx="22.303" cy="65.412" r="2.119" fill="#111"/><circle cx="33.1" cy="65.412" r="2.119" fill="#111"/><circle cx="43.897" cy="65.412" r="2.119" fill="#111"/><circle cx="54.693" cy="65.412" r="2.119" fill="#111"/><circle cx="65.49" cy="65.412" r="2.119" fill="#111"/><circle cx="76.287" cy="65.412" r="2.119" fill="#111"/><circle cx="87.084" cy="65.412" r="2.119" fill="#111"/><circle cx="97.881" cy="65.412" r="2.119" fill="#111"/><circle cx="22.303" cy="76.235" r="2.119" fill="#111"/><circle cx="33.1" cy="76.235" r="2.119" fill="#111"/><circle cx="43.897" cy="76.235" r="2.119" fill="#111"/><circle cx="54.693" cy="76.235" r="2.119" fill="#111"/><circle cx="65.49" cy="76.235" r="2.119" fill="#111"/><circle cx="76.287" cy="76.235" r="2.119" fill="#111"/><circle cx="87.084" cy="76.235" r="2.119" fill="#111"/><circle cx="97.881" cy="76.235" r="2.119" fill="#111"/><circle cx="22.303" cy="87.058" r="2.119" fill="#111"/><circle cx="33.1" cy="87.058" r="2.119" fill="#111"/><circle cx="43.897" cy="87.058" r="2.119" fill="#111"/><circle cx="54.693" cy="87.058" r="2.119" fill="#111"/><circle cx="65.49" cy="87.058" r="2.119" fill="#111"/><circle cx="76.287" cy="87.058" r="2.119" fill="#111"/><circle cx="87.084" cy="87.058" r="2.119" fill="#111"/><circle cx="97.881" cy="87.058" r="2.119" fill="#111"/><circle cx="22.303" cy="97.881" r="2.119" fill="#111"/><circle cx="33.1" cy="97.881" r="2.119" fill="#111"/><circle cx="43.897" cy="97.881" r="2.119" fill="#111"/><circle cx="54.693" cy="97.881" r="2.119" fill="#111"/><circle cx="65.49" cy="97.881" r="2.119" fill="#111"/><circle cx="76.287" cy="97.881" r="2.119" fill="#111"/><circle cx="87.084" cy="97.881" r="2.119" fill="#111"/><circle cx="97.881" cy="97.881" r="2.119" fill="#111"/></svg>