<svg id="Layer_1" data-name="Layer 1" xmlns="http://www.w3.org/2000/svg" viewBox="0 0 100 100"><path d="M42.574,9.984,0,79.312H85.149Zm0,31.727L53.607,59.677H31.542Z" fill="#c5c5ff"/><circle cx="65.134" cy="29.542" r="1.447" fill="#8686fc"/><circle cx="60.504" cy="35.184" r="1.447" fill="#8686fc"/><circle cx="64.555" cy="39.38" r="1.447" fill="#8686fc"/><circle cx="57.321" cy="42.273" r="1.447" fill="#8686fc"/><circle cx="61.083" cy="47.482" r="1.447" fill="#8686fc"/><circle cx="53.126" cy="50.375" r="1.447" fill="#8686fc"/><circle cx="57.611" cy="56.307" r="1.447" fill="#8686fc"/><circle cx="46.905" cy="59.634" r="1.447" fill="#8686fc"/><circle cx="51.1" cy="64.842" r="1.447" fill="#8686fc"/><circle cx="40.829" cy="68.315" r="1.447" fill="#8686fc"/><circle cx="46.905" cy="72.655" r="1.447" fill="#8686fc"/><circle cx="38.514" cy="75.548" r="1.447" fill="#8686fc"/><circle cx="42.275" cy="80.467" r="1.447" fill="#8686fc"/><circle cx="49.654" cy="78.152" r="1.447" fill="#8686fc"/><circle cx="57.321" cy="75.548" r="1.447" fill="#8686fc"/><circle cx="55.875" cy="81.914" r="1.447" fill="#8686fc"/><circle cx="46.326" cy="85.675" r="1.447" fill="#8686fc"/><circle cx="51.679" cy="88.569" r="1.447" fill="#8686fc"/><circle cx="60.504" cy="87.122" r="1.447" fill="#8686fc"/><circle cx="63.976" cy="80.033" r="1.447" fill="#8686fc"/><circle cx="71.21" cy="74.68" r="1.447" fill="#8686fc"/><circle cx="72.657" cy="81.914" r="1.447" fill="#8686fc"/><circle cx="68.027" cy="86.543" r="1.447" fill="#8686fc"/><circle cx="79.167" cy="86.543" r="1.447" fill="#8686fc"/><circle cx="78.444" cy="76.995" r="1.447" fill="#8686fc"/><circle cx="84.375" cy="81.48" r="1.447" fill="#8686fc"/><circle cx="90.307" cy="86.543" r="1.447" fill="#8686fc"/><circle cx="98.553" cy="86.543" r="1.447" fill="#8686fc"/><circle cx="96.383" cy="80.033" r="1.447" fill="#8686fc"/><circle cx="90.307" cy="77.574" r="1.447" fill="#8686fc"/><circle cx="91.464" cy="71.208" r="1.447" fill="#8686fc"/><circle cx="83.941" cy="72.655" r="1.447" fill="#8686fc"/><circle cx="79.167" cy="66.868" r="1.447" fill="#8686fc"/><circle cx="84.375" cy="62.528" r="1.447" fill="#8686fc"/><circle cx="80.469" cy="57.319" r="1.447" fill="#8686fc"/><circle cx="74.682" cy="58.766" r="1.447" fill="#8686fc"/><circle cx="76.997" cy="50.375" r="1.447" fill="#8686fc"/><circle cx="70.487" cy="49.507" r="1.447" fill="#8686fc"/><circle cx="74.103" cy="45.167" r="1.447" fill="#8686fc"/><circle cx="66.87" cy="44.588" r="1.447" fill="#8686fc"/><circle cx="70.487" cy="38.801" r="1.447" fill="#8686fc"/><circle cx="68.027" cy="34.172" r="1.447" fill="#8686fc"/><circle cx="33.595" cy="81.914" r="1.447" fill="#8686fc"/><circle cx="38.514" cy="86.543" r="1.447" fill="#8686fc"/><circle cx="29.833" cy="87.99" r="1.447" fill="#8686fc"/></svg>