<svg id="Layer_1" data-name="Layer 1" xmlns="http://www.w3.org/2000/svg" viewBox="0 0 100 100"><polygon points="10 0 0 17.321 20 17.321 10 0" fill="#111"/><polygon points="70 0 60 17.321 80 17.321 70 0" fill="#111"/><polygon points="90 0 80 17.321 100 17.321 90 0" fill="#111"/><polygon points="50 0 40 17.321 60 17.321 50 0" fill="#111"/><polygon points="30 0 20 17.321 40 17.321 30 0" fill="#111"/><polygon points="10 20.67 0 37.99 20 37.99 10 20.67" fill="#111"/><polygon points="70 20.67 60 37.99 80 37.99 70 20.67" fill="#111"/><polygon points="90 20.67 80 37.99 100 37.99 90 20.67" fill="#111"/><polygon points="50 20.67 40 37.99 60 37.99 50 20.67" fill="#111"/><polygon points="30 20.67 20 37.99 40 37.99 30 20.67" fill="#111"/><polygon points="10 41.34 0 58.66 20 58.66 10 41.34" fill="#111"/><polygon points="70 41.34 60 58.66 80 58.66 70 41.34" fill="#111"/><polygon points="90 41.34 80 58.66 100 58.66 90 41.34" fill="#111"/><polygon points="50 41.34 40 58.66 60 58.66 50 41.34" fill="#111"/><polygon points="30 41.34 20 58.66 40 58.66 30 41.34" fill="#111"/><polygon points="10 62.01 0 79.33 20 79.33 10 62.01" fill="#111"/><polygon points="70 62.01 60 79.33 80 79.33 70 62.01" fill="#111"/><polygon points="90 62.01 80 79.33 100 79.33 90 62.01" fill="#111"/><polygon points="50 62.01 40 79.33 60 79.33 50 62.01" fill="#111"/><polygon points="30 62.01 20 79.33 40 79.33 30 62.01" fill="#111"/><polygon points="10 82.679 0 100 20 100 10 82.679" fill="#111"/><polygon points="70 82.679 60 100 80 100 70 82.679" fill="#111"/><polygon points="90 82.679 80 100 100 100 90 82.679" fill="#111"/><polygon points="50 82.679 40 100 60 100 50 82.679" fill="#111"/><polygon points="30 82.679 20 100 40 100 30 82.679" fill="#111"/></svg>