<svg id="Layer_1" data-name="Layer 1" xmlns="http://www.w3.org/2000/svg" viewBox="0 0 100 100"><polygon points="49.919 3 91.381 26.933 50.356 50.784 8.749 26.933 49.919 3" fill="none" stroke="#111" stroke-linecap="round" stroke-linejoin="round" stroke-width="6"/><polygon points="8.749 26.933 8.619 73.067 50.081 97 50.356 50.784 8.749 26.933" fill="none" stroke="#111" stroke-linecap="round" stroke-linejoin="round" stroke-width="6"/><path d="M22.49,34.883c.163.094,0,46.257,0,46.257" fill="none" stroke="#111" stroke-linecap="round" stroke-linejoin="round" stroke-width="6"/><path d="M36.267,42.834c.163.093,0,46.256,0,46.256" fill="none" stroke="#111" stroke-linecap="round" stroke-linejoin="round" stroke-width="6"/><polygon points="91.381 26.933 91.251 73.067 50.081 97 50.356 50.784 91.381 26.933" fill="none" stroke="#111" stroke-linecap="round" stroke-linejoin="round" stroke-width="6"/><path d="M77.656,34.863c-.163.093,0,46.256,0,46.256" fill="none" stroke="#111" stroke-linecap="round" stroke-linejoin="round" stroke-width="6"/><path d="M63.878,42.813c-.163.094,0,46.257,0,46.257" fill="none" stroke="#111" stroke-linecap="round" stroke-linejoin="round" stroke-width="6"/></svg>