<svg id="Layer_1" data-name="Layer 1" xmlns="http://www.w3.org/2000/svg" viewBox="0 0 100 100"><path d="M84.428,14.312V85.688c0-6.245-15.414-11.31-34.428-11.31s-34.428,5.065-34.428,11.31V14.312c0,6.245,15.414,11.31,34.428,11.31S84.428,20.557,84.428,14.312Z" fill="none" stroke="#111" stroke-linecap="round" stroke-linejoin="round" stroke-width="6"/><path d="M84.428,14.312c0,6.245-15.414,11.31-34.428,11.31s-34.428-5.065-34.428-11.31S30.986,3,50,3,84.428,8.065,84.428,14.312Z" fill="none" stroke="#111" stroke-linecap="round" stroke-linejoin="round" stroke-width="6"/><path d="M84.428,85.688C84.428,91.935,69.014,97,50,97S15.572,91.935,15.572,85.688,30.986,74.378,50,74.378,84.428,79.443,84.428,85.688Z" fill="none" stroke="#111" stroke-linecap="round" stroke-linejoin="round" stroke-width="6"/></svg>