<svg id="Layer_1" data-name="Layer 1" xmlns="http://www.w3.org/2000/svg" viewBox="0 0 100 100"><path d="M67.8,14.515c0,6.378-7.973,11.533-17.805,11.533-9.814,0-17.787-5.155-17.787-11.533C32.2,8.155,40.177,3,49.991,3,59.823,3,67.8,8.155,67.8,14.515Z" fill="none" stroke="#111" stroke-linecap="round" stroke-linejoin="round" stroke-width="6"/><path d="M67.8,14.515V85.467C67.8,91.827,59.823,97,49.991,97,40.177,97,32.2,91.827,32.2,85.467V14.515c0,6.378,7.973,11.533,17.787,11.533C59.823,26.048,67.8,20.893,67.8,14.515Z" fill="none" stroke="#111" stroke-linecap="round" stroke-linejoin="round" stroke-width="6"/><line x1="43.273" y1="25.195" x2="32.204" y2="36.264" fill="none" stroke="#111" stroke-linecap="round" stroke-linejoin="round" stroke-width="6"/><line x1="59.473" y1="24.275" x2="32.204" y2="51.543" fill="none" stroke="#111" stroke-linecap="round" stroke-linejoin="round" stroke-width="6"/><line x1="67.796" y1="31.231" x2="32.204" y2="66.822" fill="none" stroke="#111" stroke-linecap="round" stroke-linejoin="round" stroke-width="6"/><line x1="67.796" y1="46.51" x2="32.204" y2="82.101" fill="none" stroke="#111" stroke-linecap="round" stroke-linejoin="round" stroke-width="6"/><line x1="67.796" y1="61.789" x2="36.57" y2="93.015" fill="none" stroke="#111" stroke-linecap="round" stroke-linejoin="round" stroke-width="6"/><line x1="67.796" y1="77.068" x2="47.864" y2="97" fill="none" stroke="#111" stroke-linecap="round" stroke-linejoin="round" stroke-width="6"/></svg>