<svg id="Layer_1" data-name="Layer 1" xmlns="http://www.w3.org/2000/svg" viewBox="0 0 100 100"><polygon points="9.21 0 0 9.21 0 0 9.21 0" fill="#8686fc"/><polygon points="25.21 0 0 25.21 0 14.87 14.87 0 25.21 0" fill="#8686fc"/><polygon points="41.19 0 0 41.19 0 30.85 30.85 0 41.19 0" fill="#8686fc"/><polygon points="57.19 0 0 57.19 0 46.85 46.85 0 57.19 0" fill="#8686fc"/><polygon points="73.19 0 0 73.19 0 62.85 62.85 0 73.19 0" fill="#8686fc"/><polygon points="89.17 0 0 89.17 0 78.83 78.83 0 89.17 0" fill="#8686fc"/><polygon points="100 0 100 5.17 5.17 100 0 100 0 94.83 94.83 0 100 0" fill="#8686fc"/><polygon points="100 10.83 100 21.17 21.17 100 10.83 100 100 10.83" fill="#8686fc"/><polygon points="100 26.81 100 37.15 37.15 100 26.81 100 100 26.81" fill="#8686fc"/><polygon points="100 42.81 100 53.15 53.15 100 42.81 100 100 42.81" fill="#8686fc"/><polygon points="100 58.81 100 69.15 69.15 100 58.81 100 100 58.81" fill="#8686fc"/><polygon points="100 74.79 100 85.13 85.13 100 74.79 100 100 74.79" fill="#8686fc"/><polygon points="100 90.79 100 100 90.79 100 100 90.79" fill="#8686fc"/></svg>