<svg id="Layer_1" data-name="Layer 1" xmlns="http://www.w3.org/2000/svg" viewBox="0 0 100 100"><polygon points="42.698 10.093 0 84.049 85.397 84.049 42.698 10.093" fill="#8686fc"/><path d="M59.519,26.716a2.257,2.257,0,0,1-.9-.187,2.493,2.493,0,0,1-.248-.124,2.249,2.249,0,0,1-.836-3.08,2.3,2.3,0,0,1,1.973-1.15,2.268,2.268,0,0,1,1.16,4.23A2.29,2.29,0,0,1,59.519,26.716Z" fill="#111"/><path d="M26.042,84.672a2.268,2.268,0,0,1-1.963-3.4l.047-.082a2.268,2.268,0,0,1,3.931,2.262l-.047.083A2.266,2.266,0,0,1,26.042,84.672Zm4.779-8.278A2.268,2.268,0,0,1,28.858,73l.047-.083a2.268,2.268,0,0,1,3.931,2.263l-.047.082A2.267,2.267,0,0,1,30.821,76.394ZM35.6,68.117a2.267,2.267,0,0,1-1.963-3.4l.047-.083A2.268,2.268,0,0,1,37.615,66.9l-.047.082A2.267,2.267,0,0,1,35.6,68.117Zm4.779-8.277a2.268,2.268,0,0,1-1.958-3.408l.047-.082a2.268,2.268,0,0,1,3.921,2.28l-.048.082A2.266,2.266,0,0,1,40.379,59.84Zm4.779-8.277a2.268,2.268,0,0,1-1.964-3.4l.048-.083a2.268,2.268,0,0,1,3.931,2.263l-.047.082A2.268,2.268,0,0,1,45.158,51.563Zm4.779-8.278a2.268,2.268,0,0,1-1.964-3.4l.048-.082a2.268,2.268,0,1,1,3.931,2.262l-.047.082A2.268,2.268,0,0,1,49.937,43.285Zm4.779-8.277a2.268,2.268,0,0,1-1.964-3.4l.048-.082a2.268,2.268,0,1,1,3.931,2.262l-.047.082A2.268,2.268,0,0,1,54.716,35.008Z" fill="#111"/><path d="M21.335,92.907a2.3,2.3,0,0,1-1.987-1.136,2.267,2.267,0,1,1,1.987,1.136Z" fill="#111"/><path d="M88.241,92.907h-.095a2.268,2.268,0,0,1,0-4.536h.095a2.268,2.268,0,0,1,0,4.536Zm-9.558,0h-.1a2.268,2.268,0,0,1,0-4.536h.1a2.268,2.268,0,0,1,0,4.536Zm-9.558,0H69.03a2.268,2.268,0,0,1,0-4.536h.095a2.268,2.268,0,0,1,0,4.536Zm-9.558,0h-.095a2.268,2.268,0,1,1,0-4.536h.095a2.268,2.268,0,0,1,0,4.536Zm-9.558,0h-.095a2.268,2.268,0,0,1,0-4.536h.095a2.268,2.268,0,0,1,0,4.536Zm-9.558,0h-.095a2.268,2.268,0,0,1,0-4.536h.095a2.268,2.268,0,1,1,0,4.536Zm-9.558,0h-.1a2.268,2.268,0,0,1,0-4.536h.1a2.268,2.268,0,0,1,0,4.536Z" fill="#111"/><path d="M97.749,92.907a2.275,2.275,0,0,1-1.368-4.1,2.09,2.09,0,0,1,.22-.145,2.25,2.25,0,0,1,3.088.8,2.306,2.306,0,0,1,.014,2.289A2.27,2.27,0,0,1,97.749,92.907Z" fill="#111"/><path d="M93,84.672a2.267,2.267,0,0,1-1.968-1.136l-.047-.083a2.268,2.268,0,0,1,3.931-2.262l.048.082A2.268,2.268,0,0,1,93,84.672ZM88.218,76.4a2.267,2.267,0,0,1-1.968-1.136l-.047-.083a2.268,2.268,0,0,1,3.931-2.262l.048.082a2.268,2.268,0,0,1-1.964,3.4Zm-4.779-8.278a2.267,2.267,0,0,1-1.968-1.136l-.047-.082a2.268,2.268,0,0,1,3.931-2.263l.048.083a2.268,2.268,0,0,1-1.964,3.4ZM78.66,59.84A2.266,2.266,0,0,1,76.7,58.712l-.048-.082a2.268,2.268,0,0,1,3.921-2.28l.047.082A2.268,2.268,0,0,1,78.66,59.84Zm-4.779-8.277a2.265,2.265,0,0,1-1.967-1.137l-.048-.082A2.268,2.268,0,0,1,75.8,48.081l.048.083a2.268,2.268,0,0,1-1.964,3.4ZM69.1,43.286a2.266,2.266,0,0,1-1.968-1.137l-.048-.082A2.268,2.268,0,0,1,71.019,39.8l.047.083a2.268,2.268,0,0,1-1.963,3.4Zm-4.779-8.278a2.266,2.266,0,0,1-1.968-1.137l-.048-.082a2.268,2.268,0,1,1,3.932-2.262l.047.082a2.268,2.268,0,0,1-1.963,3.4Z" fill="#111"/><path d="M59.519,43.4a2.257,2.257,0,0,1-.9-.187,2.294,2.294,0,0,1-.248-.124,2.249,2.249,0,0,1-.836-3.08,2.3,2.3,0,0,1,1.973-1.15,2.268,2.268,0,0,1,1.16,4.23A2.29,2.29,0,0,1,59.519,43.4Z" fill="#111"/><path d="M40,77.177a2.266,2.266,0,0,1-1.965-3.4l.048-.084a2.268,2.268,0,1,1,3.934,2.257l-.048.084A2.265,2.265,0,0,1,40,77.177Zm4.873-8.44a2.269,2.269,0,0,1-1.965-3.4l.048-.084a2.268,2.268,0,1,1,3.934,2.257l-.048.084A2.266,2.266,0,0,1,44.874,68.737ZM49.748,60.3a2.268,2.268,0,0,1-1.96-3.405l.049-.083a2.267,2.267,0,1,1,3.923,2.274l-.049.084A2.265,2.265,0,0,1,49.748,60.3Zm4.873-8.441a2.268,2.268,0,0,1-1.959-3.405l.048-.083a2.267,2.267,0,1,1,3.923,2.274l-.048.084A2.268,2.268,0,0,1,54.621,51.854Z" fill="#111"/><path d="M35.2,85.574a2.3,2.3,0,0,1-1.987-1.136,2.27,2.27,0,1,1,4.215-1.408,2.086,2.086,0,0,1,.018.276A2.249,2.249,0,0,1,35.2,85.574Z" fill="#111"/><path d="M74.188,85.574h-.1a2.268,2.268,0,0,1,0-4.535h.1a2.268,2.268,0,1,1,0,4.535Zm-9.747,0h-.1a2.268,2.268,0,0,1,0-4.535h.1a2.268,2.268,0,1,1,0,4.535Zm-9.747,0h-.1a2.268,2.268,0,1,1,0-4.535h.1a2.268,2.268,0,1,1,0,4.535Zm-9.747,0h-.1a2.268,2.268,0,1,1,0-4.535h.1a2.268,2.268,0,1,1,0,4.535Z" fill="#111"/><path d="M83.884,85.574a2.275,2.275,0,0,1-1.368-4.1,2.076,2.076,0,0,1,.219-.145,2.251,2.251,0,0,1,3.088.8,2.3,2.3,0,0,1,.014,2.289A2.268,2.268,0,0,1,83.884,85.574Z" fill="#111"/><path d="M79.038,77.177a2.264,2.264,0,0,1-1.964-1.13l-.048-.083a2.267,2.267,0,1,1,3.923-2.275l.048.083a2.266,2.266,0,0,1-1.959,3.405Zm-4.874-8.44A2.264,2.264,0,0,1,72.2,67.606l-.049-.083a2.268,2.268,0,0,1,3.924-2.275l.048.084a2.268,2.268,0,0,1-1.96,3.405ZM69.291,60.3a2.267,2.267,0,0,1-1.969-1.139l-.049-.085a2.268,2.268,0,0,1,3.934-2.257l.048.085a2.268,2.268,0,0,1-1.964,3.4Zm-4.874-8.441a2.265,2.265,0,0,1-1.969-1.139l-.048-.084a2.268,2.268,0,1,1,3.934-2.257l.048.084a2.266,2.266,0,0,1-1.965,3.4Z" fill="#111"/><path d="M59.519,59.507a2.242,2.242,0,0,1-.908-.192,2.155,2.155,0,0,1-.221-.109,2.247,2.247,0,0,1-.866-3.071,2.307,2.307,0,0,1,1.984-1.17,2.271,2.271,0,1,1,.011,4.542Z" fill="#111"/><path d="M54.283,68.546a2.267,2.267,0,0,1-1.959-3.4l.051-.089A2.268,2.268,0,1,1,56.3,67.326l-.052.089A2.267,2.267,0,0,1,54.283,68.546Z" fill="#111"/><path d="M49.149,77.521A2.306,2.306,0,0,1,47.167,76.4a2.267,2.267,0,0,1-.036-2.259A2.275,2.275,0,0,1,51.38,75a2.359,2.359,0,0,1,.014.254A2.248,2.248,0,0,1,49.149,77.521Z" fill="#111"/><path d="M59.571,77.521h-.1a2.268,2.268,0,1,1,0-4.535h.1a2.268,2.268,0,0,1,0,4.535Z" fill="#111"/><path d="M69.935,77.521a2.275,2.275,0,0,1-1.4-4.083,2.26,2.26,0,0,1,3.346.658,2.3,2.3,0,0,1,0,2.279A2.27,2.27,0,0,1,69.935,77.521Z" fill="#111"/><path d="M64.755,68.545a2.264,2.264,0,0,1-1.964-1.131l-.052-.089a2.267,2.267,0,1,1,3.924-2.273l.052.089a2.267,2.267,0,0,1-1.96,3.4Z" fill="#111"/></svg>