<svg id="Layer_1" data-name="Layer 1" xmlns="http://www.w3.org/2000/svg" viewBox="0 0 100 100"><path d="M76.3,71.448v-.215" fill="none" stroke="#111" stroke-linecap="round" stroke-linejoin="round" stroke-width="6"/><path d="M3,71.448a47,47,0,0,1,94,0c0-2.265-4.64-4.1-10.352-4.1-5.537,0-10.066,1.723-10.351,3.885a26.292,26.292,0,0,0-52.584.215c0-2.265-4.64-4.1-10.351-4.1S3,69.183,3,71.448Z" fill="#8686fc" stroke="#111" stroke-linecap="round" stroke-linejoin="round" stroke-width="6"/><path d="M3,71.448c0-2.265,4.64-4.1,10.362-4.1s10.351,1.835,10.351,4.1-4.64,4.1-10.351,4.1S3,73.712,3,71.448Z" fill="none" stroke="#111" stroke-linecap="round" stroke-linejoin="round" stroke-width="6"/><path d="M76.287,71.448a.689.689,0,0,1,.01-.143v-.072c.285-2.162,4.814-3.885,10.351-3.885,5.712,0,10.352,1.835,10.352,4.1s-4.64,4.1-10.352,4.1S76.287,73.712,76.287,71.448Z" fill="none" stroke="#111" stroke-linecap="round" stroke-linejoin="round" stroke-width="6"/></svg>