<svg id="Layer_1" data-name="Layer 1" xmlns="http://www.w3.org/2000/svg" viewBox="0 0 100 100"><circle cx="40" cy="40" r="40" fill="#8686fc"/><path d="M62.832,90.83h-.1a2,2,0,0,1,0-4h.1a2,2,0,0,1,0,4Zm-9.851-1.908a2,2,0,0,1-.762-.152l-.083-.035a2,2,0,1,1,1.506-3.7l.1.042a2,2,0,0,1-.764,3.85Zm19.594-.037a2,2,0,0,1-.775-3.846L71.9,85a2,2,0,0,1,1.527,3.7l-.763-1.848.681,1.883A2.005,2.005,0,0,1,72.575,88.885Zm-27.963-5.5a1.994,1.994,0,0,1-1.4-.572l-.043-.042a2.02,2.02,0,0,1-.036-2.842,1.978,1.978,0,0,1,2.806-.043l.072.07a2,2,0,0,1-1.4,3.429Zm36.308-.07a2,2,0,0,1-1.442-3.384l.1-.1a2,2,0,0,1,2.828,2.828l-.042.042A1.993,1.993,0,0,1,80.92,83.316ZM38.982,75.082a2,2,0,0,1-1.845-1.228l1.844-.773-1.881.686a2,2,0,1,1,3.685-1.555l.04.1a2,2,0,0,1-1.843,2.774Zm47.538-.091a1.973,1.973,0,0,1-.8-.167,2.038,2.038,0,0,1,1.58-3.756,1.979,1.979,0,0,1,1.11,2.582l-.059.139A2,2,0,0,1,86.52,74.991ZM36.956,65.206a1.957,1.957,0,0,1-2-1.921v-.064a2.021,2.021,0,0,1,1.978-2.039h.023a1.978,1.978,0,0,1,2,1.946,2.045,2.045,0,0,1-1.97,2.079Zm51.549-.051a2,2,0,0,1-2-2c0-.064,0-.128.009-.19s-.01-.119-.011-.18a2.045,2.045,0,0,1,1.97-2.079A1.936,1.936,0,0,1,90.5,62.627v.1c0,.055,0,.111,0,.166s.006.108.006.163v.1A2,2,0,0,1,88.505,65.155ZM38.828,55.4a1.975,1.975,0,0,1-.752-.148,2,2,0,0,1-1.1-2.6l.035-.088a2,2,0,1,1,3.71,1.5l-.039.1A2,2,0,0,1,38.828,55.4Zm47.617-.461A2,2,0,0,1,84.6,53.715a2.041,2.041,0,0,1,1.035-2.661,1.957,1.957,0,0,1,2.6.993c0,.007.046.106.049.113a2,2,0,0,1-1.065,2.62A1.978,1.978,0,0,1,86.445,54.938Zm-42.113-7.93a2,2,0,0,1-1.415-3.414l1.415,1.414-1.387-1.443a2,2,0,0,1,2.913,2.742l-.112.115A2,2,0,0,1,44.332,47.008Zm36.448-.353a1.987,1.987,0,0,1-1.368-.542c-.011-.009-.093-.089-.1-.1a2,2,0,0,1,2.8-2.858l-1.4,1.429L82.149,43.2a2,2,0,0,1-1.369,3.458ZM52.625,41.339a2,2,0,0,1-.784-3.84l.015-.006a2.036,2.036,0,0,1,2.644,1.03,1.964,1.964,0,0,1-.971,2.6l-.13.057A2.01,2.01,0,0,1,52.625,41.339Zm19.764-.186a2,2,0,0,1-.711-.132l-.135-.053a2,2,0,1,1,1.506-3.705l.053.02a2,2,0,0,1-.713,3.87Zm-9.958-1.869a2,2,0,0,1,0-4v2l.043-2h.046a2,2,0,0,1,.069,4Z" fill="#111"/><path d="M67.535,100a2,2,0,0,1-.235-3.986A2.027,2.027,0,0,1,69.592,97.7a1.98,1.98,0,0,1-1.665,2.267l-.153.021A2.142,2.142,0,0,1,67.535,100Zm-9.962-.051a2.052,2.052,0,0,1-.29-.021l-.1-.015a2,2,0,0,1,.591-3.957,2.042,2.042,0,0,1,1.735,2.277A1.966,1.966,0,0,1,57.573,99.949ZM77.21,97.227a2,2,0,0,1-.824-3.824,2.045,2.045,0,0,1,2.692.979,1.958,1.958,0,0,1-.954,2.625l-.091.041A1.99,1.99,0,0,1,77.21,97.227Zm-29.293-.151a1.944,1.944,0,0,1-.811-.177l-.139-.063a1.985,1.985,0,1,1,.95.24ZM85.7,91.812a2,2,0,0,1-1.345-3.474l.123-.107a2,2,0,1,1,2.584,3.053l-1.292-1.526,1.262,1.553A2.016,2.016,0,0,1,85.7,91.812Zm-46.211-.225a2,2,0,0,1-1.339-.515l1.34-1.485-1.369,1.458a2,2,0,0,1,2.585-3.051l.123.108a2,2,0,0,1-1.34,3.485Zm52.831-7.339a2,2,0,0,1-1.666-3.1,2.042,2.042,0,0,1,2.784-.618,1.957,1.957,0,0,1,.624,2.711c0,.01-.065.1-.071.112A2,2,0,0,1,92.324,84.248Zm-59.4-.31a1.972,1.972,0,0,1-1.67-.917l-.021-.032a2.03,2.03,0,0,1,.586-2.777,1.968,1.968,0,0,1,2.736.548c.007.011.051.08.059.091a2.008,2.008,0,0,1-1.69,3.087Zm63.618-8.825a2,2,0,0,1-1.909-2.6,2.045,2.045,0,0,1,2.5-1.368A1.959,1.959,0,0,1,98.5,73.57l-.041.139A2,2,0,0,1,96.546,75.113Zm-67.769-.388a1.936,1.936,0,0,1-1.881-1.4s-.03-.1-.031-.108a2,2,0,1,1,3.851-1.082,2.044,2.044,0,0,1-1.364,2.513A2.123,2.123,0,0,1,28.777,74.725ZM98,65.155a2,2,0,0,1-2-2,2.044,2.044,0,0,1,2-2.05,1.959,1.959,0,0,1,2,1.951v.1A2,2,0,0,1,98,65.155Zm-70.536-.408a1.959,1.959,0,0,1-2-1.95v-.065a2.022,2.022,0,0,1,2-2.01h.007A1.978,1.978,0,0,1,29.465,62.7,2.044,2.044,0,0,1,27.464,64.747ZM96.742,55.69a2,2,0,0,1-1.921-1.447l-.035-.124a2,2,0,0,1,3.86-1.053l.019.07A2,2,0,0,1,97.3,55.611,1.973,1.973,0,0,1,96.742,55.69Zm-67.778-.841a2.026,2.026,0,0,1-.581-.087,2,2,0,0,1-1.334-2.494l.021-.071a2,2,0,0,1,3.844,1.108l-.037.123A2,2,0,0,1,28.964,54.849ZM92.712,46.47a2,2,0,0,1-1.7-.946,2.044,2.044,0,0,1,.618-2.8,1.959,1.959,0,0,1,2.728.6l.053.085a2,2,0,0,1-1.7,3.055Zm-59.49-.789a1.985,1.985,0,0,1-1.67-3.046l.06-.091a2,2,0,1,1,3.337,2.205A2.073,2.073,0,0,1,33.222,45.681Zm53.016-6.918a1.988,1.988,0,0,1-1.306-.486l-.107-.095A2,2,0,1,1,87.5,35.211L86.164,36.7l1.381-1.448a2,2,0,0,1-1.307,3.515Zm-46.322-.628A1.984,1.984,0,0,1,38.6,34.659l.076-.064a2,2,0,1,1,2.584,3.052A2.069,2.069,0,0,1,39.916,38.135Zm37.941-4.947a1.982,1.982,0,0,1-.82-.178l-.139-.065a2,2,0,0,1,1.742-3.6l-.871,1.8.914-1.78a2,2,0,0,1-.826,3.823Zm-29.388-.4A2.016,2.016,0,0,1,46.611,31.6a1.957,1.957,0,0,1,.965-2.6l.141-.062a2,2,0,0,1,1.547,3.689A2.073,2.073,0,0,1,48.469,32.784Zm19.778-2.568a2.086,2.086,0,0,1-.35-.03,2.044,2.044,0,0,1-1.676-2.3,1.962,1.962,0,0,1,2.22-1.665l.151.024a2,2,0,0,1-.345,3.97Zm-10.165-.125A2,2,0,0,1,57.85,26.1l.234,1.987L57.891,26.1a2,2,0,0,1,.588,3.957l-.161.02A1.89,1.89,0,0,1,58.082,30.091Z" fill="#111"/><path d="M65.183,72.753a2.088,2.088,0,1,1,.737-.137l-.2.064A2.022,2.022,0,0,1,65.183,72.753Zm-8.977-2.888a1.918,1.918,0,0,1-1.538-.765l-.093-.127a2,2,0,0,1,3.255-2.325,2.018,2.018,0,0,1-1.624,3.217Zm14.6-4.709h-.03a2,2,0,0,1-1.971-2.028c0-.037,0-.074,0-.11s0-.048,0-.072a2.043,2.043,0,0,1,1.939-2.107,1.959,1.959,0,0,1,2.056,1.89l0,.1c0,.042,0,.084,0,.125s0,.067,0,.1v.129A2,2,0,0,1,70.809,65.156ZM56.1,60.4a1.986,1.986,0,0,1-1.64-3.1l.072-.1a2,2,0,1,1,3.255,2.325A2.061,2.061,0,0,1,56.1,60.4ZM65.12,57.34a1.978,1.978,0,0,1-.589-.09,2.04,2.04,0,0,1-1.378-2.507A1.96,1.96,0,0,1,65.6,53.4l.1.032a2,2,0,0,1-.588,3.912Z" fill="#111"/><path d="M59.382,81.863a1.991,1.991,0,0,1-.411-.042l.409-1.958-.452,1.949a2,2,0,0,1,.706-3.937l.155.03a2,2,0,0,1-.407,3.958Zm9.811-.931a2,2,0,0,1-.764-3.85,2.045,2.045,0,0,1,2.658,1.066,1.957,1.957,0,0,1-1.039,2.593l-.092.038A1.983,1.983,0,0,1,69.193,80.932ZM50.607,77.163a1.992,1.992,0,0,1-1.414-.586l1.414-1.414-1.47,1.358a2,2,0,0,1,2.8-2.857l.085.085a2,2,0,0,1-1.414,3.414Zm26.314-2.5a2,2,0,0,1-1.671-3.1c.006-.009.067-.1.074-.11A2,2,0,1,1,78.633,73.7l-1.654-1.123L78.6,73.757A2,2,0,0,1,76.921,74.661ZM45.889,68.338a1.942,1.942,0,0,1-1.931-1.567l-.011-.054a2.022,2.022,0,0,1,1.575-2.368A1.978,1.978,0,0,1,47.864,65.9,2.044,2.044,0,0,1,46.3,68.3,2.113,2.113,0,0,1,45.889,68.338Zm33.977-3.183h-.03a2,2,0,0,1-1.97-2.029,2.044,2.044,0,0,1,2-2.021h.014a1.959,1.959,0,0,1,1.985,1.951v.129A2,2,0,0,1,79.866,65.155Zm-1.25-6.535a2,2,0,0,1-1.855-1.253,2.04,2.04,0,0,1,1.082-2.649,1.96,1.96,0,0,1,2.588,1.055l.04.1a2,2,0,0,1-1.855,2.749ZM46.9,58.469a2,2,0,0,1-1.85-2.74l.07-.164a2,2,0,1,1,1.78,2.9Zm25.455-7.59a1.989,1.989,0,0,1-1.121-.345,2.044,2.044,0,0,1-.578-2.8,1.957,1.957,0,0,1,2.728-.576l.1.065a2,2,0,0,1-1.125,3.655ZM53.232,50.8a2,2,0,0,1-1.111-3.664L53.23,48.8l-1.04-1.711A2,2,0,0,1,54.437,50.4l-.1.064A1.987,1.987,0,0,1,53.232,50.8Zm9.625-2.873h-.1a2,2,0,0,1,0-4h.1a2,2,0,0,1,0,4Z" fill="#111"/></svg>