<svg id="Layer_1" data-name="Layer 1" xmlns="http://www.w3.org/2000/svg" viewBox="0 0 100 100"><path d="M97.714,64.945a50.169,50.169,0,0,1-32.8,32.78Z" fill="#8686fc"/><path d="M100,50a49.553,49.553,0,0,1-.484,6.923L56.879,99.528A50.924,50.924,0,0,1,50,100c-1.418,0-2.824-.055-4.209-.176L99.824,45.78C99.945,47.176,100,48.582,100,50Z" fill="#8686fc"/><path d="M99.055,40.341,40.341,99.055a48.8,48.8,0,0,1-8.374-2.418L96.626,31.945A48.1,48.1,0,0,1,99.055,40.341Z" fill="#8686fc"/><path d="M94.725,27.637l-67.066,67.1a51.361,51.361,0,0,1-6.725-4.066L90.637,20.9A50.449,50.449,0,0,1,94.725,27.637Z" fill="#8686fc"/><path d="M87.9,17.418,17.462,87.934a49.8,49.8,0,0,1-5.4-5.4L82.582,12.1A50.4,50.4,0,0,1,87.9,17.418Z" fill="#8686fc"/><path d="M79.1,9.363,9.33,79.066a51.361,51.361,0,0,1-4.066-6.725l67.1-67.066A50.449,50.449,0,0,1,79.1,9.363Z" fill="#8686fc"/><path d="M68.055,3.374,3.363,68.033A48.8,48.8,0,0,1,.945,59.659L59.659.945A48.1,48.1,0,0,1,68.055,3.374Z" fill="#8686fc"/><path d="M54.22.176.176,54.209C.055,52.824,0,51.418,0,50a50.762,50.762,0,0,1,.473-6.879L43.077.483A49.706,49.706,0,0,1,50,0C51.418,0,52.824.055,54.22.176Z" fill="#8686fc"/><path d="M35.066,2.286,2.275,35.1A50.156,50.156,0,0,1,35.066,2.286Z" fill="#8686fc"/></svg>