<svg id="Layer_1" data-name="Layer 1" xmlns="http://www.w3.org/2000/svg" viewBox="0 0 100 100"><polygon points="96.832 17.355 81.665 17.394 75.313 17.402 60.127 3.033 81.641 3 96.832 17.355" fill="none" stroke="#111" stroke-linecap="round" stroke-linejoin="round" stroke-width="6"/><polygon points="96.832 17.355 96.992 97 18.237 97 18.208 82.637 18.189 74.29 75.421 74.175 75.313 17.402 81.665 17.394 96.832 17.355" fill="none" stroke="#111" stroke-linecap="round" stroke-linejoin="round" stroke-width="6"/><polygon points="75.421 74.175 18.189 74.29 3.008 61.138 60.24 61.023 75.421 74.175" fill="none" stroke="#111" stroke-linecap="round" stroke-linejoin="round" stroke-width="6"/><polygon points="75.313 17.402 75.421 74.175 60.24 61.023 60.127 3.033 75.313 17.402" fill="none" stroke="#111" stroke-linecap="round" stroke-linejoin="round" stroke-width="6"/><polygon points="18.189 74.29 18.208 82.637 18.237 97 3.046 82.662 3.008 61.138 18.189 74.29" fill="none" stroke="#111" stroke-linecap="round" stroke-linejoin="round" stroke-width="6"/></svg>