<svg id="Layer_1" data-name="Layer 1" xmlns="http://www.w3.org/2000/svg" viewBox="0 0 100 100"><polygon points="36.929 8.282 24.015 21.196 21.19 24.009 2 30.647 17.726 14.908 36.929 8.282" fill="#8686fc" stroke="#111" stroke-linecap="round" stroke-linejoin="round" stroke-width="4"/><polygon points="82.274 8.282 69.359 21.196 59.595 30.949 53.319 24.672 63.071 14.908 82.274 8.282" fill="#8686fc" stroke="#111" stroke-linecap="round" stroke-linejoin="round" stroke-width="4"/><polygon points="43.872 46.691 24.662 53.309 2 30.647 21.19 24.009 43.872 46.691" fill="#111" stroke="#111" stroke-linecap="round" stroke-linejoin="round" stroke-width="4"/><polygon points="43.872 46.691 21.19 69.353 2 75.991 24.652 53.319 24.662 53.309 43.872 46.691" fill="#8686fc" stroke="#111" stroke-linecap="round" stroke-linejoin="round" stroke-width="4"/><polygon points="36.929 85.092 17.726 91.718 2 75.991 21.19 69.353 36.929 85.092" fill="#111" stroke="#111" stroke-linecap="round" stroke-linejoin="round" stroke-width="4"/><polygon points="75.334 46.687 98 69.353 82.274 85.092 75.985 78.804 59.595 62.413 46.681 75.328 36.929 85.092 21.19 69.353 43.869 46.687 21.19 24.009 24.015 21.196 36.929 8.282 59.595 30.949 69.359 21.196 82.274 8.282 98 24.009 75.334 46.687" fill="#c5c5ff" stroke="#111" stroke-linecap="round" stroke-linejoin="round" stroke-width="4"/><polygon points="82.274 85.092 63.071 91.718 46.681 75.328 59.595 62.413 75.985 78.804 82.274 85.092" fill="#111" stroke="#111" stroke-linecap="round" stroke-linejoin="round" stroke-width="4"/></svg>