<svg id="Layer_1" data-name="Layer 1" xmlns="http://www.w3.org/2000/svg" viewBox="0 0 100 100"><polygon points="50.194 48.999 50.053 97 10.225 74 10.354 26 50.194 48.999" fill="none" stroke="#111" stroke-linecap="round" stroke-linejoin="round" stroke-width="6"/><polygon points="89.775 26 89.646 74 50.053 97 50.194 48.999 89.775 26" fill="#8686fc" stroke="#111" stroke-linecap="round" stroke-linejoin="round" stroke-width="6"/><path d="M50.194,52a3,3,0,0,1-1.5-.4l-39.84-23a3,3,0,0,1-.006-5.193L48.44.406a3,3,0,0,1,3.007,0l39.828,23a3,3,0,0,1,.007,5.192l-39.581,23A3,3,0,0,1,50.194,52Z" fill="#111"/></svg>