<svg id="Layer_1" data-name="Layer 1" xmlns="http://www.w3.org/2000/svg" viewBox="0 0 100 100"><circle cx="1.889" cy="13.939" r="1.889" fill="#111"/><circle cx="11.511" cy="13.939" r="1.889" fill="#111"/><circle cx="21.133" cy="13.939" r="1.889" fill="#111"/><circle cx="30.756" cy="13.939" r="1.889" fill="#111"/><circle cx="40.378" cy="13.939" r="1.889" fill="#111"/><circle cx="50" cy="13.939" r="1.889" fill="#111"/><circle cx="59.622" cy="13.939" r="1.889" fill="#111"/><circle cx="69.244" cy="13.939" r="1.889" fill="#111"/><circle cx="78.867" cy="13.939" r="1.889" fill="#111"/><circle cx="88.489" cy="13.939" r="1.889" fill="#111"/><circle cx="98.111" cy="13.939" r="1.889" fill="#111"/><circle cx="1.889" cy="22.954" r="1.889" fill="#111"/><circle cx="11.511" cy="22.954" r="1.889" fill="#111"/><circle cx="21.133" cy="22.954" r="1.889" fill="#111"/><circle cx="30.756" cy="22.954" r="1.889" fill="#111"/><circle cx="40.378" cy="22.954" r="1.889" fill="#111"/><circle cx="50" cy="22.954" r="1.889" fill="#111"/><circle cx="59.622" cy="22.954" r="1.889" fill="#111"/><circle cx="69.244" cy="22.954" r="1.889" fill="#111"/><circle cx="78.867" cy="22.954" r="1.889" fill="#111"/><circle cx="88.489" cy="22.954" r="1.889" fill="#111"/><circle cx="98.111" cy="22.954" r="1.889" fill="#111"/><circle cx="1.889" cy="31.969" r="1.889" fill="#111"/><circle cx="11.511" cy="31.969" r="1.889" fill="#111"/><circle cx="21.133" cy="31.969" r="1.889" fill="#111"/><circle cx="30.756" cy="31.969" r="1.889" fill="#111"/><circle cx="40.378" cy="31.969" r="1.889" fill="#111"/><circle cx="50" cy="31.969" r="1.889" fill="#111"/><circle cx="59.622" cy="31.969" r="1.889" fill="#111"/><circle cx="69.244" cy="31.969" r="1.889" fill="#111"/><circle cx="78.867" cy="31.969" r="1.889" fill="#111"/><circle cx="88.489" cy="31.969" r="1.889" fill="#111"/><circle cx="98.111" cy="31.969" r="1.889" fill="#111"/><circle cx="1.889" cy="40.985" r="1.889" fill="#111"/><circle cx="11.511" cy="40.985" r="1.889" fill="#111"/><circle cx="21.133" cy="40.985" r="1.889" fill="#111"/><circle cx="30.756" cy="40.985" r="1.889" fill="#111"/><circle cx="40.378" cy="40.985" r="1.889" fill="#111"/><circle cx="50" cy="40.985" r="1.889" fill="#111"/><circle cx="59.622" cy="40.985" r="1.889" fill="#111"/><circle cx="69.244" cy="40.985" r="1.889" fill="#111"/><circle cx="78.867" cy="40.985" r="1.889" fill="#111"/><circle cx="88.489" cy="40.985" r="1.889" fill="#111"/><circle cx="98.111" cy="40.985" r="1.889" fill="#111"/><circle cx="1.889" cy="50" r="1.889" fill="#111"/><circle cx="11.511" cy="50" r="1.889" fill="#111"/><circle cx="21.133" cy="50" r="1.889" fill="#111"/><circle cx="30.756" cy="50" r="1.889" fill="#111"/><circle cx="40.378" cy="50" r="1.889" fill="#111"/><circle cx="50" cy="50" r="1.889" fill="#111"/><circle cx="59.622" cy="50" r="1.889" fill="#111"/><circle cx="69.244" cy="50" r="1.889" fill="#111"/><circle cx="78.867" cy="50" r="1.889" fill="#111"/><circle cx="88.489" cy="50" r="1.889" fill="#111"/><circle cx="98.111" cy="50" r="1.889" fill="#111"/><circle cx="1.889" cy="59.015" r="1.889" fill="#111"/><circle cx="11.511" cy="59.015" r="1.889" fill="#111"/><circle cx="21.133" cy="59.015" r="1.889" fill="#111"/><circle cx="30.756" cy="59.015" r="1.889" fill="#111"/><circle cx="40.378" cy="59.015" r="1.889" fill="#111"/><circle cx="50" cy="59.015" r="1.889" fill="#111"/><circle cx="59.622" cy="59.015" r="1.889" fill="#111"/><circle cx="69.244" cy="59.015" r="1.889" fill="#111"/><circle cx="78.867" cy="59.015" r="1.889" fill="#111"/><circle cx="88.489" cy="59.015" r="1.889" fill="#111"/><circle cx="98.111" cy="59.015" r="1.889" fill="#111"/><circle cx="1.889" cy="68.031" r="1.889" fill="#111"/><circle cx="11.511" cy="68.031" r="1.889" fill="#111"/><circle cx="21.133" cy="68.031" r="1.889" fill="#111"/><circle cx="30.756" cy="68.031" r="1.889" fill="#111"/><circle cx="40.378" cy="68.031" r="1.889" fill="#111"/><circle cx="50" cy="68.031" r="1.889" fill="#111"/><circle cx="59.622" cy="68.031" r="1.889" fill="#111"/><circle cx="69.244" cy="68.031" r="1.889" fill="#111"/><circle cx="78.867" cy="68.031" r="1.889" fill="#111"/><circle cx="88.489" cy="68.031" r="1.889" fill="#111"/><circle cx="98.111" cy="68.031" r="1.889" fill="#111"/><circle cx="1.889" cy="77.046" r="1.889" fill="#111"/><circle cx="11.511" cy="77.046" r="1.889" fill="#111"/><circle cx="21.133" cy="77.046" r="1.889" fill="#111"/><circle cx="30.756" cy="77.046" r="1.889" fill="#111"/><circle cx="40.378" cy="77.046" r="1.889" fill="#111"/><circle cx="50" cy="77.046" r="1.889" fill="#111"/><circle cx="59.622" cy="77.046" r="1.889" fill="#111"/><circle cx="69.244" cy="77.046" r="1.889" fill="#111"/><circle cx="78.867" cy="77.046" r="1.889" fill="#111"/><circle cx="88.489" cy="77.046" r="1.889" fill="#111"/><circle cx="98.111" cy="77.046" r="1.889" fill="#111"/><circle cx="1.889" cy="86.061" r="1.889" fill="#111"/><circle cx="11.511" cy="86.061" r="1.889" fill="#111"/><circle cx="21.133" cy="86.061" r="1.889" fill="#111"/><circle cx="30.756" cy="86.061" r="1.889" fill="#111"/><circle cx="40.378" cy="86.061" r="1.889" fill="#111"/><circle cx="50" cy="86.061" r="1.889" fill="#111"/><circle cx="59.622" cy="86.061" r="1.889" fill="#111"/><circle cx="69.244" cy="86.061" r="1.889" fill="#111"/><circle cx="78.867" cy="86.061" r="1.889" fill="#111"/><circle cx="88.489" cy="86.061" r="1.889" fill="#111"/><circle cx="98.111" cy="86.061" r="1.889" fill="#111"/></svg>