<svg id="Layer_1" data-name="Layer 1" xmlns="http://www.w3.org/2000/svg" viewBox="0 0 100 100"><path d="M41.139,2.185A40.088,40.088,0,1,0,81.228,42.274,40.089,40.089,0,0,0,41.139,2.185Zm0,57.37A17.281,17.281,0,1,1,58.421,42.274,17.281,17.281,0,0,1,41.139,59.555Z" fill="#c5c5ff"/><circle cx="60.389" cy="29.633" r="1.538" fill="#8686fc"/><circle cx="67.813" cy="35.254" r="1.538" fill="#8686fc"/><circle cx="77.888" cy="32.709" r="1.538" fill="#8686fc"/><circle cx="80.963" cy="40.345" r="1.538" fill="#8686fc"/><circle cx="86.478" cy="36.739" r="1.538" fill="#8686fc"/><circle cx="91.251" cy="43.42" r="1.538" fill="#8686fc"/><circle cx="94.326" cy="52.647" r="1.538" fill="#8686fc"/><circle cx="98.462" cy="58.904" r="1.538" fill="#8686fc"/><circle cx="84.887" cy="48.193" r="1.538" fill="#8686fc"/><circle cx="74.282" cy="41.829" r="1.538" fill="#8686fc"/><circle cx="70.888" cy="29.633" r="1.538" fill="#8686fc"/><circle cx="60.389" cy="38.33" r="1.538" fill="#8686fc"/><circle cx="60.389" cy="45.011" r="1.538" fill="#8686fc"/><circle cx="67.07" cy="46.92" r="1.538" fill="#8686fc"/><circle cx="76.615" cy="48.829" r="1.538" fill="#8686fc"/><circle cx="77.57" cy="54.556" r="1.538" fill="#8686fc"/><circle cx="86.16" cy="55.51" r="1.538" fill="#8686fc"/><circle cx="81.388" cy="61.237" r="1.538" fill="#8686fc"/><circle cx="89.978" cy="63.146" r="1.538" fill="#8686fc"/><circle cx="95.705" cy="66.964" r="1.538" fill="#8686fc"/><circle cx="97.614" cy="73.646" r="1.538" fill="#8686fc"/><circle cx="87.114" cy="70.782" r="1.538" fill="#8686fc"/><circle cx="79.479" cy="67.919" r="1.538" fill="#8686fc"/><circle cx="80.433" cy="74.6" r="1.538" fill="#8686fc"/><circle cx="89.978" cy="77.464" r="1.538" fill="#8686fc"/><circle cx="89.978" cy="85.099" r="1.538" fill="#8686fc"/><circle cx="83.296" cy="82.236" r="1.538" fill="#8686fc"/><circle cx="72.797" cy="78.418" r="1.538" fill="#8686fc"/><circle cx="75.661" cy="86.054" r="1.538" fill="#8686fc"/><circle cx="81.388" cy="93.69" r="1.538" fill="#8686fc"/><circle cx="70.888" cy="96.553" r="1.538" fill="#8686fc"/><circle cx="62.298" cy="98.462" r="1.538" fill="#8686fc"/><circle cx="66.116" cy="91.781" r="1.538" fill="#8686fc"/><circle cx="68.025" cy="83.19" r="1.538" fill="#8686fc"/><circle cx="60.389" cy="80.327" r="1.538" fill="#8686fc"/><circle cx="58.48" cy="88.917" r="1.538" fill="#8686fc"/><circle cx="52.753" cy="94.644" r="1.538" fill="#8686fc"/><circle cx="51.798" cy="86.054" r="1.538" fill="#8686fc"/><circle cx="51.798" cy="77.464" r="1.538" fill="#8686fc"/><circle cx="38.754" cy="86.054" r="1.538" fill="#8686fc"/><circle cx="44.269" cy="78.948" r="1.538" fill="#8686fc"/><circle cx="44.269" cy="90.614" r="1.538" fill="#8686fc"/><circle cx="34.936" cy="80.433" r="1.538" fill="#8686fc"/><circle cx="38.754" cy="74.6" r="1.538" fill="#8686fc"/><circle cx="47.344" cy="72.055" r="1.538" fill="#8686fc"/><circle cx="43.42" cy="68.449" r="1.538" fill="#8686fc"/><circle cx="30.906" cy="72.373" r="1.538" fill="#8686fc"/><circle cx="35.36" cy="66.858" r="1.538" fill="#8686fc"/><circle cx="43.42" cy="63.146" r="1.538" fill="#8686fc"/><circle cx="48.935" cy="60.283" r="1.538" fill="#8686fc"/><circle cx="38.011" cy="59.646" r="1.538" fill="#8686fc"/><circle cx="28.467" cy="61.237" r="1.538" fill="#8686fc"/><circle cx="30.906" cy="52.647" r="1.538" fill="#8686fc"/><circle cx="37.587" cy="52.011" r="1.538" fill="#8686fc"/><circle cx="45.011" cy="53.601" r="1.538" fill="#8686fc"/><circle cx="52.753" cy="51.268" r="1.538" fill="#8686fc"/><circle cx="50.208" cy="46.602" r="1.538" fill="#8686fc"/><circle cx="42.678" cy="46.284" r="1.538" fill="#8686fc"/><circle cx="52.011" cy="39.284" r="1.538" fill="#8686fc"/><circle cx="52.753" cy="31.118" r="1.538" fill="#8686fc"/><circle cx="44.269" cy="34.618" r="1.538" fill="#8686fc"/><circle cx="38.754" cy="39.284" r="1.538" fill="#8686fc"/><circle cx="34.936" cy="43.42" r="1.538" fill="#8686fc"/></svg>