<svg id="Layer_1" data-name="Layer 1" xmlns="http://www.w3.org/2000/svg" viewBox="0 0 100 100"><path d="M97,31.685c0,.18,0,.35-.01.53a10.429,10.429,0,1,1,.01-.53Z" fill="none" stroke="#111" stroke-linecap="round" stroke-linejoin="round" stroke-width="6"/><path d="M23.71,31.685a1.477,1.477,0,0,1-.01.21v.12a10.354,10.354,0,0,1-20.69.2c-.01-.18-.01-.35-.01-.53a10.355,10.355,0,1,1,20.71,0Z" fill="none" stroke="#111" stroke-linecap="round" stroke-linejoin="round" stroke-width="6"/><path d="M96.99,32.215a46.993,46.993,0,0,1-93.98,0,10.354,10.354,0,0,0,20.69-.2,26.3,26.3,0,0,0,52.59-.33,10.357,10.357,0,0,0,20.7.53Z" fill="none" stroke="#111" stroke-linecap="round" stroke-linejoin="round" stroke-width="6"/></svg>