<svg id="Layer_1" data-name="Layer 1" xmlns="http://www.w3.org/2000/svg" viewBox="0 0 100 100"><path d="M0,4.158v81.53H81.53V4.158ZM63.464,67.622h-45.4v-45.4h45.4Z" fill="#c5c5ff"/><circle cx="25.607" cy="21.45" r="1.818" fill="#8686fc"/><circle cx="29.242" cy="28.97" r="1.818" fill="#8686fc"/><circle cx="34.507" cy="22.327" r="1.818" fill="#8686fc"/><circle cx="38.643" cy="27.215" r="1.818" fill="#8686fc"/><circle cx="46.916" cy="29.973" r="1.818" fill="#8686fc"/><circle cx="45.036" cy="21.45" r="1.818" fill="#8686fc"/><circle cx="52.306" cy="24.207" r="1.818" fill="#8686fc"/><circle cx="59.576" cy="29.096" r="1.818" fill="#8686fc"/><circle cx="59.576" cy="19.569" r="1.818" fill="#8686fc"/><circle cx="65.467" cy="24.207" r="1.818" fill="#8686fc"/><circle cx="73.991" cy="18.692" r="1.818" fill="#8686fc"/><circle cx="73.239" cy="29.973" r="1.818" fill="#8686fc"/><circle cx="77.626" cy="25.335" r="1.818" fill="#8686fc"/><circle cx="83.392" cy="29.973" r="1.818" fill="#8686fc"/><circle cx="85.899" cy="20.447" r="1.818" fill="#8686fc"/><circle cx="90.787" cy="27.341" r="1.818" fill="#8686fc"/><circle cx="96.302" cy="21.45" r="1.818" fill="#8686fc"/><circle cx="98.182" cy="31.853" r="1.818" fill="#8686fc"/><circle cx="90.787" cy="37.243" r="1.818" fill="#8686fc"/><circle cx="97.305" cy="42.257" r="1.818" fill="#8686fc"/><circle cx="88.907" cy="47.145" r="1.818" fill="#8686fc"/><circle cx="94.547" cy="52.661" r="1.818" fill="#8686fc"/><circle cx="88.907" cy="57.048" r="1.818" fill="#8686fc"/><circle cx="97.305" cy="60.181" r="1.818" fill="#8686fc"/><circle cx="89.659" cy="66.95" r="1.818" fill="#8686fc"/><circle cx="95.55" cy="74.095" r="1.818" fill="#8686fc"/><circle cx="89.659" cy="76.852" r="1.818" fill="#8686fc"/><circle cx="92.793" cy="81.991" r="1.818" fill="#8686fc"/><circle cx="98.182" cy="85.626" r="1.818" fill="#8686fc"/><circle cx="98.057" cy="93.022" r="1.818" fill="#8686fc"/><circle cx="91.414" cy="91.142" r="1.818" fill="#8686fc"/><circle cx="85.147" cy="84.498" r="1.818" fill="#8686fc"/><circle cx="79.381" cy="92.144" r="1.818" fill="#8686fc"/><circle cx="77.5" cy="85.626" r="1.818" fill="#8686fc"/><circle cx="72.111" cy="89.387" r="1.818" fill="#8686fc"/><circle cx="65.467" cy="83.746" r="1.818" fill="#8686fc"/><circle cx="61.331" cy="94.025" r="1.818" fill="#8686fc"/><circle cx="59.451" cy="87.381" r="1.818" fill="#8686fc"/><circle cx="48.671" cy="82.618" r="1.818" fill="#8686fc"/><circle cx="47.919" cy="92.27" r="1.818" fill="#8686fc"/><circle cx="42.278" cy="87.381" r="1.818" fill="#8686fc"/><circle cx="35.008" cy="93.022" r="1.818" fill="#8686fc"/><circle cx="33.128" cy="83.746" r="1.818" fill="#8686fc"/><circle cx="27.362" cy="89.261" r="1.818" fill="#8686fc"/><circle cx="25.607" cy="78.607" r="1.818" fill="#8686fc"/><circle cx="32.627" cy="71.588" r="1.818" fill="#8686fc"/><circle cx="27.362" cy="65.195" r="1.818" fill="#8686fc"/><circle cx="33.003" cy="59.555" r="1.818" fill="#8686fc"/><circle cx="26.234" cy="53.914" r="1.818" fill="#8686fc"/><circle cx="29.619" cy="48.273" r="1.818" fill="#8686fc"/><circle cx="23.978" cy="43.761" r="1.818" fill="#8686fc"/><circle cx="31.875" cy="38.12" r="1.818" fill="#8686fc"/><circle cx="23.978" cy="35.864" r="1.818" fill="#8686fc"/></svg>