<svg id="Layer_1" data-name="Layer 1" xmlns="http://www.w3.org/2000/svg" viewBox="0 0 100 100"><path d="M92.391,61.46H7.609c2.548,0,4.608-5.132,4.608-11.46s-2.06-11.46-4.608-11.46H92.391c-2.535,0-4.608,5.132-4.608,11.46S89.856,61.46,92.391,61.46Z" fill="none" stroke="#111" stroke-linecap="round" stroke-linejoin="round" stroke-width="6"/><path d="M97,50c0,6.328-2.06,11.46-4.609,11.46S87.783,56.328,87.783,50s2.073-11.46,4.608-11.46S97,43.672,97,50Z" fill="#8686fc" stroke="#111" stroke-linecap="round" stroke-linejoin="round" stroke-width="6"/><path d="M12.217,50c0,6.328-2.06,11.46-4.608,11.46S3,56.328,3,50,5.061,38.54,7.609,38.54,12.217,43.672,12.217,50Z" fill="#8686fc" stroke="#111" stroke-linecap="round" stroke-linejoin="round" stroke-width="6"/></svg>