<svg id="Layer_1" data-name="Layer 1" xmlns="http://www.w3.org/2000/svg" viewBox="0 0 100 100"><path d="M50,11.929a2.786,2.786,0,0,1-1.112-.231,2.91,2.91,0,0,1-.306-.153,2.778,2.778,0,0,1-1.033-3.8,2.844,2.844,0,0,1,2.438-1.42,2.8,2.8,0,0,1,1.432,5.224A2.836,2.836,0,0,1,50,11.929Z" fill="#111"/><path d="M8.657,83.509a2.8,2.8,0,0,1-2.425-4.2l.058-.1A2.8,2.8,0,1,1,11.145,82l-.058.1A2.8,2.8,0,0,1,8.657,83.509Zm5.9-10.224a2.8,2.8,0,0,1-2.425-4.2l.058-.1a2.8,2.8,0,1,1,4.856,2.794l-.059.1A2.8,2.8,0,0,1,14.559,73.285Zm5.9-10.222a2.8,2.8,0,0,1-2.425-4.2l.059-.1a2.8,2.8,0,0,1,4.855,2.794l-.058.1A2.8,2.8,0,0,1,20.461,63.063Zm5.9-10.224a2.8,2.8,0,0,1-2.419-4.209l.059-.1a2.8,2.8,0,0,1,4.842,2.816l-.059.1A2.8,2.8,0,0,1,26.364,52.839Zm5.9-10.223a2.8,2.8,0,0,1-2.425-4.2l.058-.1a2.8,2.8,0,0,1,4.856,2.794l-.059.1A2.8,2.8,0,0,1,32.266,42.616Zm5.9-10.223a2.8,2.8,0,0,1-2.425-4.2l.059-.1a2.8,2.8,0,1,1,4.855,2.794l-.058.1A2.8,2.8,0,0,1,38.168,32.393Zm5.9-10.223a2.8,2.8,0,0,1-2.425-4.2l.058-.1a2.8,2.8,0,0,1,4.855,2.794l-.058.1A2.8,2.8,0,0,1,44.071,22.17Z" fill="#111"/><path d="M2.843,93.679a2.847,2.847,0,0,1-2.455-1.4,2.8,2.8,0,1,1,5.206-1.74,2.574,2.574,0,0,1,.022.342A2.776,2.776,0,0,1,2.843,93.679Z" fill="#111"/><path d="M85.477,93.679h-.118a2.8,2.8,0,0,1,0-5.6h.118a2.8,2.8,0,0,1,0,5.6Zm-11.806,0h-.116a2.8,2.8,0,1,1,0-5.6h.116a2.8,2.8,0,1,1,0,5.6Zm-11.8,0H61.75a2.8,2.8,0,1,1,0-5.6h.117a2.8,2.8,0,0,1,0,5.6Zm-11.8,0h-.117a2.8,2.8,0,1,1,0-5.6h.117a2.8,2.8,0,1,1,0,5.6Zm-11.8,0H38.14a2.8,2.8,0,0,1,0-5.6h.117a2.8,2.8,0,1,1,0,5.6Zm-11.8,0h-.117a2.8,2.8,0,1,1,0-5.6h.117a2.8,2.8,0,0,1,0,5.6Zm-11.8,0h-.117a2.8,2.8,0,1,1,0-5.6h.117a2.8,2.8,0,1,1,0,5.6Z" fill="#111"/><path d="M97.22,93.679a2.809,2.809,0,0,1-1.689-5.068,2.547,2.547,0,0,1,.271-.18,2.779,2.779,0,0,1,3.813,1,2.844,2.844,0,0,1,.018,2.827A2.8,2.8,0,0,1,97.22,93.679Z" fill="#111"/><path d="M91.351,83.509a2.8,2.8,0,0,1-2.43-1.4l-.059-.1a2.8,2.8,0,1,1,4.855-2.794l.059.1a2.8,2.8,0,0,1-2.425,4.2Zm-5.9-10.222a2.8,2.8,0,0,1-2.431-1.4l-.058-.1a2.8,2.8,0,1,1,4.855-2.794l.059.1a2.8,2.8,0,0,1-2.425,4.2Zm-5.9-10.224a2.8,2.8,0,0,1-2.43-1.4l-.059-.1a2.8,2.8,0,0,1,4.856-2.794l.058.1a2.8,2.8,0,0,1-2.425,4.2Zm-5.9-10.224a2.8,2.8,0,0,1-2.424-1.393l-.058-.1A2.8,2.8,0,1,1,76,48.53l.058.1a2.8,2.8,0,0,1-2.418,4.209Zm-5.9-10.223a2.8,2.8,0,0,1-2.431-1.4l-.058-.1a2.8,2.8,0,1,1,4.855-2.794l.059.1a2.8,2.8,0,0,1-2.425,4.2Zm-5.9-10.222a2.8,2.8,0,0,1-2.43-1.4l-.059-.1a2.8,2.8,0,0,1,4.856-2.794l.058.1a2.8,2.8,0,0,1-2.425,4.2Zm-5.9-10.224a2.8,2.8,0,0,1-2.43-1.4l-.059-.1A2.8,2.8,0,0,1,58.3,17.87l.059.1a2.8,2.8,0,0,1-2.425,4.2Z" fill="#111"/><path d="M50,32.534a2.786,2.786,0,0,1-1.112-.231,2.91,2.91,0,0,1-.306-.153,2.778,2.778,0,0,1-1.033-3.8,2.844,2.844,0,0,1,2.438-1.42,2.8,2.8,0,0,1,1.432,5.224A2.836,2.836,0,0,1,50,32.534Z" fill="#111"/><path d="M25.9,74.253a2.8,2.8,0,0,1-2.426-4.195l.059-.1a2.8,2.8,0,1,1,4.859,2.788l-.06.1A2.8,2.8,0,0,1,25.9,74.253Zm6.019-10.425a2.8,2.8,0,0,1-2.426-4.195l.059-.1a2.8,2.8,0,1,1,4.859,2.788l-.06.1A2.8,2.8,0,0,1,31.915,63.828ZM37.935,53.4a2.8,2.8,0,0,1-2.42-4.205l.059-.1A2.8,2.8,0,1,1,40.42,51.9l-.06.1A2.8,2.8,0,0,1,37.935,53.4Zm6.018-10.425a2.8,2.8,0,0,1-2.42-4.2l.06-.1a2.8,2.8,0,1,1,4.846,2.809l-.06.1A2.8,2.8,0,0,1,43.953,42.976Z" fill="#111"/><path d="M19.968,84.623a2.846,2.846,0,0,1-2.455-1.4,2.8,2.8,0,1,1,5.206-1.739,2.559,2.559,0,0,1,.022.341A2.777,2.777,0,0,1,19.968,84.623Z" fill="#111"/><path d="M68.12,84.623H68a2.8,2.8,0,1,1,0-5.6h.119a2.8,2.8,0,1,1,0,5.6Zm-12.038,0h-.119a2.8,2.8,0,1,1,0-5.6h.119a2.8,2.8,0,1,1,0,5.6Zm-12.038,0h-.119a2.8,2.8,0,1,1,0-5.6h.119a2.8,2.8,0,1,1,0,5.6Zm-12.038,0h-.119a2.8,2.8,0,1,1,0-5.6h.119a2.8,2.8,0,1,1,0,5.6Z" fill="#111"/><path d="M80.1,84.623a2.809,2.809,0,0,1-1.689-5.069,2.7,2.7,0,0,1,.271-.179,2.778,2.778,0,0,1,3.813.994,2.844,2.844,0,0,1,.018,2.827A2.8,2.8,0,0,1,80.1,84.623Z" fill="#111"/><path d="M74.11,74.253a2.8,2.8,0,0,1-2.425-1.4l-.06-.1a2.8,2.8,0,1,1,4.845-2.81l.06.1a2.8,2.8,0,0,1-2.42,4.206ZM68.091,63.828a2.8,2.8,0,0,1-2.425-1.4l-.06-.1a2.8,2.8,0,1,1,4.846-2.81l.059.1a2.8,2.8,0,0,1-2.42,4.206ZM62.072,53.4A2.8,2.8,0,0,1,59.64,52l-.06-.1A2.8,2.8,0,1,1,64.439,49.1l.059.1A2.8,2.8,0,0,1,62.072,53.4ZM56.053,42.977a2.8,2.8,0,0,1-2.432-1.407l-.06-.1a2.8,2.8,0,1,1,4.859-2.788l.06.1a2.8,2.8,0,0,1-2.427,4.194Z" fill="#111"/><path d="M50,52.428a2.812,2.812,0,0,1-2.463-4.164,2.846,2.846,0,0,1,2.451-1.445A2.8,2.8,0,0,1,51.4,52.057,2.833,2.833,0,0,1,50,52.428Z" fill="#111"/><path d="M43.537,63.592a2.8,2.8,0,0,1-2.421-4.2l.064-.111a2.8,2.8,0,0,1,4.847,2.808l-.064.11A2.8,2.8,0,0,1,43.537,63.592Z" fill="#111"/><path d="M37.2,74.677a2.846,2.846,0,0,1-2.448-1.39,2.8,2.8,0,1,1,5.2-1.724,2.94,2.94,0,0,1,.017.313A2.776,2.776,0,0,1,37.2,74.677Z" fill="#111"/><path d="M50.067,74.677h-.128a2.8,2.8,0,0,1,0-5.6h.128a2.8,2.8,0,1,1,0,5.6Z" fill="#111"/><path d="M62.867,74.677a2.81,2.81,0,0,1-1.723-5.043,2.564,2.564,0,0,1,.328-.219,2.777,2.777,0,0,1,3.8,1.031,2.846,2.846,0,0,1,0,2.815A2.8,2.8,0,0,1,62.867,74.677Z" fill="#111"/><path d="M56.47,63.591a2.8,2.8,0,0,1-2.426-1.4l-.064-.11a2.8,2.8,0,0,1,4.846-2.808l.064.111a2.8,2.8,0,0,1-2.42,4.2Z" fill="#111"/></svg>