<svg id="Layer_1" data-name="Layer 1" xmlns="http://www.w3.org/2000/svg" viewBox="0 0 100 100"><circle cx="41.213" cy="41.213" r="41.213" fill="#c5c5ff"/><circle cx="34.852" cy="41.831" r="4.805" fill="#8686fc"/><circle cx="30.047" cy="70.423" r="4.805" fill="#8686fc"/><circle cx="59.283" cy="84.701" r="5.316" fill="#8686fc"/><circle cx="57.627" cy="27.8" r="4.805" fill="#8686fc"/><circle cx="44.647" cy="34.338" r="2.687" fill="#8686fc"/><circle cx="44.647" cy="55.267" r="2.687" fill="#8686fc"/><circle cx="30.714" cy="54.587" r="2.687" fill="#8686fc"/><circle cx="65.096" cy="69.854" r="2.687" fill="#8686fc"/><circle cx="93.945" cy="68.345" r="2.687" fill="#8686fc"/><circle cx="78.613" cy="70.423" r="4.927" fill="#8686fc"/><circle cx="87.059" cy="39.713" r="4.927" fill="#8686fc"/><circle cx="71.726" cy="31.167" r="3.367" fill="#8686fc"/><circle cx="96.633" cy="55.267" r="3.367" fill="#8686fc"/><circle cx="77.725" cy="56.915" r="4.407" fill="#8686fc"/><circle cx="57.627" cy="54.736" r="4.407" fill="#8686fc"/><circle cx="59.283" cy="97.249" r="2.751" fill="#8686fc"/><circle cx="39.657" cy="90.228" r="2.751" fill="#8686fc"/><circle cx="77.725" cy="94.233" r="2.751" fill="#8686fc"/><circle cx="92.363" cy="82.463" r="3.519" fill="#8686fc"/><circle cx="71.726" cy="43.046" r="2.687" fill="#8686fc"/><circle cx="50.021" cy="67.736" r="2.687" fill="#8686fc"/><circle cx="41.959" cy="80.294" r="3.838" fill="#8686fc"/><circle cx="76.897" cy="83.873" r="3.579" fill="#8686fc"/><circle cx="55.907" cy="40.888" r="2.687" fill="#8686fc"/></svg>