<svg id="Layer_1" data-name="Layer 1" xmlns="http://www.w3.org/2000/svg" viewBox="0 0 100 100"><circle cx="28.421" cy="2.824" r="2.824" fill="#111"/><circle cx="42.807" cy="2.824" r="2.824" fill="#111"/><circle cx="57.193" cy="2.824" r="2.824" fill="#111"/><circle cx="71.579" cy="2.824" r="2.824" fill="#111"/><circle cx="28.421" cy="16.303" r="2.824" fill="#111"/><circle cx="42.807" cy="16.303" r="2.824" fill="#111"/><circle cx="57.193" cy="16.303" r="2.824" fill="#111"/><circle cx="71.579" cy="16.303" r="2.824" fill="#111"/><circle cx="28.421" cy="29.782" r="2.824" fill="#111"/><circle cx="42.807" cy="29.782" r="2.824" fill="#111"/><circle cx="57.193" cy="29.782" r="2.824" fill="#111"/><circle cx="71.579" cy="29.782" r="2.824" fill="#111"/><circle cx="28.421" cy="43.261" r="2.824" fill="#111"/><circle cx="42.807" cy="43.261" r="2.824" fill="#111"/><circle cx="57.193" cy="43.261" r="2.824" fill="#111"/><circle cx="71.579" cy="43.261" r="2.824" fill="#111"/><circle cx="28.421" cy="56.739" r="2.824" fill="#111"/><circle cx="42.807" cy="56.739" r="2.824" fill="#111"/><circle cx="57.193" cy="56.739" r="2.824" fill="#111"/><circle cx="71.579" cy="56.739" r="2.824" fill="#111"/><circle cx="28.421" cy="70.218" r="2.824" fill="#111"/><circle cx="42.807" cy="70.218" r="2.824" fill="#111"/><circle cx="57.193" cy="70.218" r="2.824" fill="#111"/><circle cx="71.579" cy="70.218" r="2.824" fill="#111"/><circle cx="28.421" cy="83.697" r="2.824" fill="#111"/><circle cx="42.807" cy="83.697" r="2.824" fill="#111"/><circle cx="57.193" cy="83.697" r="2.824" fill="#111"/><circle cx="71.579" cy="83.697" r="2.824" fill="#111"/><circle cx="28.421" cy="97.176" r="2.824" fill="#111"/><circle cx="42.807" cy="97.176" r="2.824" fill="#111"/><circle cx="57.193" cy="97.176" r="2.824" fill="#111"/><circle cx="71.579" cy="97.176" r="2.824" fill="#111"/></svg>