<svg id="Layer_1" data-name="Layer 1" xmlns="http://www.w3.org/2000/svg" viewBox="0 0 100 100"><circle cx="2.764" cy="2.649" r="2.649" fill="#111"/><circle cx="16.26" cy="2.649" r="2.649" fill="#111"/><circle cx="29.756" cy="2.649" r="2.649" fill="#111"/><circle cx="43.252" cy="2.649" r="2.649" fill="#111"/><circle cx="56.748" cy="2.649" r="2.649" fill="#111"/><circle cx="70.244" cy="2.649" r="2.649" fill="#111"/><circle cx="83.74" cy="2.649" r="2.649" fill="#111"/><circle cx="97.236" cy="2.649" r="2.649" fill="#111"/><circle cx="2.764" cy="16.178" r="2.649" fill="#111"/><circle cx="16.26" cy="16.178" r="2.649" fill="#111"/><circle cx="29.756" cy="16.178" r="2.649" fill="#111"/><circle cx="43.252" cy="16.178" r="2.649" fill="#111"/><circle cx="56.748" cy="16.178" r="2.649" fill="#111"/><circle cx="70.244" cy="16.178" r="2.649" fill="#111"/><circle cx="83.74" cy="16.178" r="2.649" fill="#111"/><circle cx="97.236" cy="16.178" r="2.649" fill="#111"/><circle cx="2.764" cy="29.707" r="2.649" fill="#111"/><circle cx="16.26" cy="29.707" r="2.649" fill="#111"/><circle cx="29.756" cy="29.707" r="2.649" fill="#111"/><circle cx="43.252" cy="29.707" r="2.649" fill="#111"/><circle cx="56.748" cy="29.707" r="2.649" fill="#111"/><circle cx="70.244" cy="29.707" r="2.649" fill="#111"/><circle cx="83.74" cy="29.707" r="2.649" fill="#111"/><circle cx="97.236" cy="29.707" r="2.649" fill="#111"/><circle cx="2.764" cy="43.236" r="2.649" fill="#111"/><circle cx="16.26" cy="43.236" r="2.649" fill="#111"/><circle cx="29.756" cy="43.236" r="2.649" fill="#111"/><circle cx="2.764" cy="56.764" r="2.649" fill="#111"/><circle cx="16.26" cy="56.764" r="2.649" fill="#111"/><circle cx="29.756" cy="56.764" r="2.649" fill="#111"/><circle cx="2.764" cy="70.293" r="2.649" fill="#111"/><circle cx="16.26" cy="70.293" r="2.649" fill="#111"/><circle cx="29.756" cy="70.293" r="2.649" fill="#111"/><circle cx="2.764" cy="83.822" r="2.649" fill="#111"/><circle cx="16.26" cy="83.822" r="2.649" fill="#111"/><circle cx="29.756" cy="83.822" r="2.649" fill="#111"/><circle cx="2.764" cy="97.351" r="2.649" fill="#111"/><circle cx="16.26" cy="97.351" r="2.649" fill="#111"/><circle cx="29.756" cy="97.351" r="2.649" fill="#111"/></svg>