<svg id="Layer_1" data-name="Layer 1" xmlns="http://www.w3.org/2000/svg" viewBox="0 0 100 100"><polygon points="95.115 34.931 95.115 52.375 63.184 52.375 63.184 84.306 45.756 84.306 45.756 52.375 13.81 52.375 13.81 34.931 45.756 34.931 45.756 3 63.184 3 63.184 34.931 95.115 34.931" fill="none" stroke="#111" stroke-linecap="round" stroke-linejoin="round" stroke-width="6"/><path d="M45.756,3V34.931h-8.94V15.694C37.69,14.548,45.756,3,45.756,3Z" fill="#8686fc" stroke="#111" stroke-linecap="round" stroke-linejoin="round" stroke-width="6"/><polygon points="45.756 52.375 45.756 84.306 36.816 97 36.816 65.069 4.885 65.069 13.81 52.375 45.756 52.375" fill="#8686fc" stroke="#111" stroke-linecap="round" stroke-linejoin="round" stroke-width="6"/><path d="M63.184,84.306S55.118,96.291,54.244,97H36.816l8.94-12.694Z" fill="#8686fc" stroke="#111" stroke-linecap="round" stroke-linejoin="round" stroke-width="6"/><polygon points="95.115 52.375 86.175 65.069 63.184 65.069 63.184 52.375 95.115 52.375" fill="#8686fc" stroke="#111" stroke-linecap="round" stroke-linejoin="round" stroke-width="6"/><polygon points="13.81 34.931 13.81 52.375 4.885 65.069 4.885 47.625 13.81 34.931" fill="#8686fc" stroke="#111" stroke-linecap="round" stroke-linejoin="round" stroke-width="6"/><line x1="45.756" y1="52.375" x2="36.816" y2="65.069" fill="#8686fc" stroke="#111" stroke-linecap="round" stroke-linejoin="round" stroke-width="6"/></svg>