<svg id="Layer_1" data-name="Layer 1" xmlns="http://www.w3.org/2000/svg" viewBox="0 0 100 100"><g style="isolation:isolate"><polygon points="27.486 69.654 27.479 72.016 27.406 97 4.716 83.897 4.79 56.551 6.695 57.652 27.278 69.533 27.486 69.654" fill="#c5c5ff" stroke="#111" stroke-linecap="round" stroke-linejoin="round" stroke-width="6"/><polygon points="50.035 56.551 49.961 83.897 27.406 97 27.479 72.016 27.486 69.654 48.143 57.652 50.035 56.551" fill="#c5c5ff" stroke="#111" stroke-linecap="round" stroke-linejoin="round" stroke-width="6"/><polygon points="50.035 56.551 48.143 57.652 27.486 69.654 27.278 69.533 6.695 57.652 4.79 56.551 27.345 43.449 50.035 56.551" fill="#c5c5ff" stroke="#111" stroke-linecap="round" stroke-linejoin="round" stroke-width="6"/></g><g style="isolation:isolate"><polygon points="72.735 69.654 72.728 72.016 72.655 97 49.965 83.897 50.039 56.551 51.944 57.652 72.527 69.533 72.735 69.654" fill="#c5c5ff" stroke="#111" stroke-linecap="round" stroke-linejoin="round" stroke-width="6"/><polygon points="95.284 56.551 95.21 83.897 72.655 97 72.728 72.016 72.735 69.654 93.392 57.652 95.284 56.551" fill="#c5c5ff" stroke="#111" stroke-linecap="round" stroke-linejoin="round" stroke-width="6"/><polygon points="95.284 56.551 93.392 57.652 72.735 69.654 72.527 69.533 51.944 57.652 50.039 56.551 72.594 43.449 95.284 56.551" fill="#c5c5ff" stroke="#111" stroke-linecap="round" stroke-linejoin="round" stroke-width="6"/></g><g style="isolation:isolate"><polygon points="50.111 29.205 50.104 31.567 50.03 56.551 27.34 43.449 27.414 16.103 29.319 17.203 49.903 29.085 50.111 29.205" fill="#c5c5ff" stroke="#111" stroke-linecap="round" stroke-linejoin="round" stroke-width="6"/><polygon points="72.66 16.103 72.586 43.449 50.03 56.551 50.104 31.567 50.111 29.205 70.768 17.203 72.66 16.103" fill="#c5c5ff" stroke="#111" stroke-linecap="round" stroke-linejoin="round" stroke-width="6"/><polygon points="72.66 16.103 70.768 17.203 50.111 29.205 49.903 29.085 29.319 17.203 27.414 16.103 49.97 3 72.66 16.103" fill="#c5c5ff" stroke="#111" stroke-linecap="round" stroke-linejoin="round" stroke-width="6"/></g></svg>