<svg id="Layer_1" data-name="Layer 1" xmlns="http://www.w3.org/2000/svg" viewBox="0 0 100 100"><path d="M50,12.956C22.386,12.956.01,26.083.01,42.273A18.115,18.115,0,0,0,1.763,49.99C7.536,62.442,26.939,71.59,50,71.59c23.04,0,42.444-9.138,48.237-21.58A18.214,18.214,0,0,0,100,42.273C100,26.083,77.614,12.956,50,12.956ZM75.73,50C70.159,53.7,60.719,56.125,50,56.125S29.831,53.7,24.27,49.99c-3.325-2.2-5.259-4.856-5.259-7.717,0-7.405,13.026-13.47,29.4-13.843h3.184c16.381.373,29.4,6.438,29.4,13.843C80.989,45.134,79.055,47.794,75.73,50Z" fill="#8686fc"/><path d="M80.989,42.273c0,2.861-1.934,5.521-5.259,7.727-5.561-3.7-15.021-6.135-25.74-6.135S29.841,46.293,24.27,49.99c-3.325-2.2-5.259-4.856-5.259-7.717,0-7.405,13.026-13.47,29.4-13.843h3.184C67.973,28.8,80.989,34.868,80.989,42.273Z" fill="#111"/><path d="M100,42.273l-.01,15.454c0,16.19-22.386,29.317-50,29.317S0,73.917,0,57.727L.01,42.273A18.115,18.115,0,0,0,1.763,49.99C7.536,62.442,26.939,71.59,50,71.59c23.04,0,42.444-9.138,48.237-21.58A18.214,18.214,0,0,0,100,42.273Z" fill="#111"/></svg>