<svg id="Layer_1" data-name="Layer 1" xmlns="http://www.w3.org/2000/svg" viewBox="0 0 100 100"><path d="M100,100H96.078A96.186,96.186,0,0,0,0,3.922V0A100.113,100.113,0,0,1,100,100Z" fill="#8686fc"/><path d="M78.184,100H74.3C74.3,60.9,40.967,29.082,0,29.082V25.2C43.111,25.2,78.184,58.753,78.184,100Z" fill="#8686fc"/><path d="M51.913,100H47.92A47.973,47.973,0,0,0,0,52.08V48.087A51.972,51.972,0,0,1,51.913,100Z" fill="#8686fc"/><path d="M25.891,100H22.056A22.081,22.081,0,0,0,0,77.944V74.109A25.921,25.921,0,0,1,25.891,100Z" fill="#8686fc"/></svg>