<svg id="Layer_1" data-name="Layer 1" xmlns="http://www.w3.org/2000/svg" viewBox="0 0 100 100"><polygon points="50 0.001 25 0.001 0 25.001 0 50.001 25 50.001 50 25.001 50 0.001" fill="#c5c5ff"/><rect x="25" y="0.001" width="25" height="25" fill="#8686fc"/><polygon points="50 50 25 50 0 75 0 100 25 100 50 75 50 50" fill="#c5c5ff"/><rect x="25" y="50" width="25" height="25" fill="#8686fc"/><polygon points="100 0.001 75 0.001 50 25.001 50 50.001 75 50.001 100 25.001 100 0.001" fill="#c5c5ff"/><rect x="75" y="0.001" width="25" height="25" fill="#8686fc"/><polygon points="100 50 75 50 50 75 50 100 75 100 100 75 100 50" fill="#c5c5ff"/><rect x="75" y="50" width="25" height="25" fill="#8686fc"/></svg>