<svg id="Layer_1" data-name="Layer 1" xmlns="http://www.w3.org/2000/svg" viewBox="0 0 100 100"><polygon points="100 15.4 100 20.99 84.28 5.6 67.13 22.4 49.99 5.6 32.85 22.4 15.71 5.6 0 21 0 15.4 15.71 0 32.85 16.8 49.99 0 67.13 16.8 84.28 0 100 15.4" fill="#8686fc"/><polygon points="100 34.8 100 40.39 84.28 25 67.13 41.8 49.99 25 32.85 41.8 15.71 25 0 40.4 0 34.8 15.71 19.4 32.85 36.2 49.99 19.4 67.13 36.2 84.28 19.4 100 34.8" fill="#8686fc"/><polygon points="100 73.6 100 79.19 84.28 63.8 67.13 80.6 49.99 63.8 32.85 80.6 15.71 63.8 0 79.2 0 73.6 15.71 58.2 32.85 75 49.99 58.2 67.13 75 84.28 58.2 100 73.6" fill="#8686fc"/><polygon points="100 54.2 100 59.79 84.28 44.4 67.13 61.2 49.99 44.4 32.85 61.2 15.71 44.4 0 59.8 0 54.2 15.71 38.8 32.85 55.6 49.99 38.8 67.13 55.6 84.28 38.8 100 54.2" fill="#8686fc"/><polygon points="100 93 100 98.59 84.28 83.2 67.13 100 49.99 83.2 32.85 100 15.71 83.2 0 98.6 0 93 15.71 77.6 32.85 94.4 49.99 77.6 67.13 94.4 84.28 77.6 100 93" fill="#8686fc"/></svg>